<?xml version="1.0" encoding="utf-8"?>
<!-- Generator: Adobe Illustrator 23.0.0, SVG Export Plug-In . SVG Version: 6.00 Build 0)  -->
<svg version="1.1" id="Layer_1" xmlns="http://www.w3.org/2000/svg" xmlns:xlink="http://www.w3.org/1999/xlink" x="0px" y="0px"
	 viewBox="0 0 612 792" style="enable-background:new 0 0 612 792;" xml:space="preserve">
<style type="text/css">
	.st0{fill:#F7941D;}
	.st1{fill:#939598;}
	.st2{font-family:'Gotham-Book';}
	.st3{font-size:8px;}
	.st4{fill:#0060A9;}
	.st5{fill:#FFFFFF;}
	.st6{font-family:'Gotham-Bold';}
	.st7{font-size:7px;}
	.st8{font-size:4px;}
	.st9{fill:#27AAE1;}
	.st10{font-size:5px;}
	.st11{fill:#FFFFFF;stroke:#000000;stroke-miterlimit:10;}
	.st12{fill:#8DC63F;}
	.st13{fill:#F9ED32;stroke:#ED1C24;stroke-miterlimit:10;}
	.st14{fill:#EF4136;}
	.st15{fill:#2B3990;}
	.st16{fill:#ED1C24;}
	.st17{fill:#1B75BC;}
	.st18{stroke:#000000;stroke-miterlimit:10;}
	.st19{fill:#8DC63F;stroke:#8DC63F;stroke-miterlimit:10;}
	.st20{font-size:9.8188px;}
	.st21{fill:none;stroke:#FFFFFF;stroke-width:0.5;stroke-linejoin:round;stroke-miterlimit:10;}
	.st22{fill:none;stroke:#FFFFFF;stroke-width:0.5;stroke-linecap:round;stroke-linejoin:round;stroke-miterlimit:10;}
	.st23{fill:#E3D900;}
	.st24{fill:none;stroke:#000000;stroke-width:0.5;stroke-linecap:round;stroke-linejoin:round;stroke-miterlimit:10;}
	.st25{font-family:'Gotham-Black';}
	.st26{fill:none;stroke:#000000;stroke-width:0.3;stroke-linecap:round;stroke-linejoin:round;stroke-miterlimit:10;}
</style>
<circle class="st0" cx="65.81" cy="389.24" r="10.19"/>
<text transform="matrix(1 0 0 1 36.3949 27.6817)" class="st1 st2 st3">Company Pins</text>
<text transform="matrix(1 0 0 1 177.7378 27.6817)" class="st1 st2 st3">Other Pins</text>
<path class="st4" d="M75.22,49.75l-5.07-4.99c-0.21-0.21-0.5-0.33-0.81-0.33l-7.22,0c-0.31,0-0.6,0.12-0.82,0.34l-4.92,5
	c-0.21,0.21-0.33,0.5-0.33,0.81v7.1c0,0.3,0.12,0.59,0.32,0.8l5.01,5.17C61.6,63.87,61.9,64,62.21,64l7.23,0
	c0.31,0,0.61-0.13,0.83-0.36l4.97-5.21c0.2-0.21,0.32-0.5,0.32-0.79l0-7.07C75.56,50.26,75.44,49.97,75.22,49.75z"/>
<text transform="matrix(1 0 0 1 63.0402 53.5169)" class="st5 st6 st7">A</text>
<text transform="matrix(1 0 0 1 39.7762 55.3064)" class="st2 st8">ADT</text>
<text transform="matrix(1 0 0 1 167.0705 54.3064)" class="st2 st8">Callback</text>
<text transform="matrix(1 0 0 1 25.4447 81.3507)" class="st2 st8">Monitronics</text>
<text transform="matrix(1 0 0 1 32.3006 102.8609)"><tspan x="0" y="0" class="st2 st8">Security</tspan><tspan x="-2.73" y="4.8" class="st2 st8">Networks</tspan></text>
<path class="st9" d="M65.89,71.1c0.11,0.09,0.23,0.19,0.35,0.3c1.23,1.22,2.75,1.66,4.44,1.58c0.85-0.04,1.69-0.18,2.51-0.44
	c0.23-0.07,0.46-0.15,0.7-0.21c0.23-0.06,0.4,0.06,0.41,0.3c0.01,0.28,0.02,0.57,0.02,0.85c0,3.24,0,6.48,0,9.72
	c0,0.08,0,0.16,0,0.24c0.08,1.24-0.39,2.3-1.13,3.25c-0.53,0.68-1.17,1.23-1.87,1.72c-1.35,0.93-2.85,1.53-4.41,1.99
	c-0.27,0.08-0.54,0.16-0.82,0.22c-0.15,0.03-0.33,0.04-0.48,0c-1.98-0.49-3.87-1.18-5.54-2.4c-0.49-0.36-0.94-0.76-1.35-1.22
	c-0.92-1.04-1.42-2.23-1.41-3.65c0.02-2.67,0.01-5.35,0.01-8.02c0-0.81,0-1.62,0.01-2.43c0-0.16,0.05-0.32,0.1-0.47
	c0.02-0.06,0.13-0.14,0.18-0.13c0.24,0.04,0.48,0.1,0.7,0.18c0.85,0.29,1.72,0.44,2.62,0.49c0.69,0.04,1.38-0.01,2.05-0.18
	c0.88-0.22,1.65-0.65,2.32-1.28C65.45,71.35,65.59,71.13,65.89,71.1z"/>
<text transform="matrix(1 0 0 1 62.7669 80.7387)" class="st5 st6 st7">M</text>
<text transform="matrix(1 0 0 1 63.2925 87.3658)" class="st5 st2 st10">16</text>
<text transform="matrix(1 0 0 1 63.2925 60.5473)" class="st5 st2 st10">16</text>
<path class="st11" d="M75.22,193.53l-5.07-4.99c-0.21-0.21-0.5-0.33-0.81-0.33l-7.22,0c-0.31,0-0.6,0.12-0.82,0.34l-4.92,5
	c-0.21,0.21-0.33,0.5-0.33,0.81v7.1c0,0.3,0.12,0.59,0.32,0.8l5.01,5.17c0.22,0.22,0.51,0.35,0.83,0.35l7.23,0
	c0.31,0,0.61-0.13,0.83-0.36l4.97-5.21c0.2-0.21,0.32-0.5,0.32-0.79l0-7.07C75.56,194.04,75.44,193.75,75.22,193.53z"/>
<text transform="matrix(1 0 0 1 63.5651 197.3001)" class="st6 st7">S</text>
<text transform="matrix(1 0 0 1 39.9163 197.0895)"><tspan x="0" y="0" class="st2 st8">Safe</tspan><tspan x="-7.62" y="4.8" class="st2 st8">Security</tspan></text>
<text transform="matrix(1 0 0 1 29.6405 228.0578)" class="st2 st8">Northstar</text>
<text transform="matrix(1 0 0 1 63.2925 204.3304)" class="st2 st10">16</text>
<path class="st11" d="M75.22,410.71l-5.07-4.99c-0.21-0.21-0.5-0.33-0.81-0.33l-7.22,0c-0.31,0-0.6,0.12-0.82,0.34l-4.92,5
	c-0.21,0.21-0.33,0.5-0.33,0.81v7.1c0,0.3,0.12,0.59,0.32,0.8l5.01,5.17c0.22,0.22,0.51,0.35,0.83,0.35l7.23,0
	c0.31,0,0.61-0.13,0.83-0.36l4.97-5.21c0.2-0.21,0.32-0.5,0.32-0.79l0-7.07C75.56,411.22,75.44,410.93,75.22,410.71z"/>
<text transform="matrix(1 0 0 1 63.1801 414.4764)" class="st6 st7">V</text>
<text transform="matrix(1 0 0 1 35.1566 416.2659)" class="st2 st8">Vector</text>
<text transform="matrix(1 0 0 1 63.2925 421.5068)" class="st2 st10">16</text>
<path class="st12" d="M75.22,461.95l-5.07-4.99c-0.21-0.21-0.5-0.33-0.81-0.33l-7.22,0c-0.31,0-0.6,0.12-0.82,0.34l-4.92,5
	c-0.21,0.21-0.33,0.5-0.33,0.81v7.1c0,0.3,0.12,0.59,0.32,0.8l5.01,5.17c0.22,0.22,0.51,0.35,0.83,0.35l7.23,0
	c0.31,0,0.61-0.13,0.83-0.36l4.97-5.21c0.2-0.21,0.32-0.5,0.32-0.79l0-7.07C75.56,462.46,75.44,462.17,75.22,461.95z"/>
<text transform="matrix(1 0 0 1 63.2221 465.7203)" class="st5 st6 st7">C</text>
<text transform="matrix(1 0 0 1 34.2244 465.5098)"><tspan x="0" y="0" class="st2 st8">Central</tspan><tspan x="-1.92" y="4.8" class="st2 st8">Security</tspan></text>
<text transform="matrix(1 0 0 1 27.7528 493.6803)" class="st2 st8">SimpliSafe</text>
<text transform="matrix(1 0 0 1 63.2925 472.7507)" class="st5 st2 st10">16</text>
<path class="st13" d="M75.22,275.19l-5.07-4.99c-0.21-0.21-0.5-0.33-0.81-0.33l-7.22,0c-0.31,0-0.6,0.12-0.82,0.34l-4.92,5
	c-0.21,0.21-0.33,0.5-0.33,0.81v7.1c0,0.3,0.12,0.59,0.32,0.8l5.01,5.17c0.22,0.22,0.51,0.35,0.83,0.35l7.23,0
	c0.31,0,0.61-0.13,0.83-0.36l4.97-5.21c0.2-0.21,0.32-0.5,0.32-0.79l0-7.07C75.56,275.7,75.44,275.4,75.22,275.19z"/>
<text transform="matrix(1 0 0 1 63.5651 278.9524)" class="st6 st7">S</text>
<text transform="matrix(1 0 0 1 36.3802 278.7419)"><tspan x="0" y="0" class="st2 st8">Select</tspan><tspan x="-4.08" y="4.8" class="st2 st8">Security</tspan></text>
<text transform="matrix(1 0 0 1 63.2925 285.9827)" class="st2 st10">16</text>
<path class="st14" d="M75.17,110.19H56.44c-0.35,0-0.63-0.28-0.63-0.63V97.47c0-0.35,0.28-0.63,0.63-0.63h18.73
	c0.35,0,0.63,0.28,0.63,0.63v12.09C75.8,109.91,75.52,110.19,75.17,110.19z"/>
<text transform="matrix(1 0 0 1 60.8002 103.1418)" class="st5 st6 st7">SN</text>
<text transform="matrix(1 0 0 1 63.2925 108.8348)" class="st5 st2 st10">16</text>
<text transform="matrix(1 0 0 1 30.6043 124.007)" class="st2 st8">Guardian</text>
<path class="st15" d="M75.17,129.34H56.44c-0.35,0-0.63-0.28-0.63-0.63v-12.09c0-0.35,0.28-0.63,0.63-0.63h18.73
	c0.35,0,0.63,0.28,0.63,0.63v12.09C75.8,129.06,75.52,129.34,75.17,129.34z"/>
<text transform="matrix(1 0 0 1 63.0612 122.2879)" class="st5 st6 st7">G</text>
<text transform="matrix(1 0 0 1 63.2925 127.9808)" class="st5 st2 st10">16</text>
<text transform="matrix(1 0 0 1 33.8685 144.1094)"><tspan x="0" y="0" class="st2 st8">Protect</tspan><tspan x="-1.83" y="4.8" class="st2 st8">America</tspan></text>
<text transform="matrix(1 0 0 1 39.8924 170.8866)" class="st2 st8">GHS</text>
<path d="M59.13,154.13V135.4c0-0.35,0.28-0.63,0.63-0.63h12.09c0.35,0,0.63,0.28,0.63,0.63v18.73c0,0.35-0.28,0.63-0.63,0.63H59.76
	C59.41,154.76,59.13,154.48,59.13,154.13z"/>
<text transform="matrix(1 0 0 1 60.9472 142.9825)" class="st5 st6 st7">PA</text>
<text transform="matrix(1 0 0 1 63.2925 151.2095)" class="st5 st2 st10">16</text>
<g id="XMLID_1_">
	<g>
		<path class="st16" d="M73.79,163.08l-14.21,14.21c-0.46-0.59-0.87-1.22-1.23-1.87c-0.35-0.63-0.64-1.29-0.87-1.96
			c-0.2-0.56-0.34-1.13-0.48-1.71c-0.16-0.7-0.24-1.4-0.31-2.11c-0.08-0.87-0.09-1.73,0-2.6c0.05-0.51,0.1-1.03,0.17-1.55
			c0.07-0.43,0.17-0.86,0.27-1.29c0.09-0.39,0.2-0.77,0.29-1.16c0.07-0.28,0.19-0.49,0.5-0.59c0.58-0.19,1.14-0.45,1.72-0.65
			c0.38-0.13,0.78-0.22,1.18-0.31c0.45-0.1,0.9-0.17,1.35-0.28c0.63-0.15,1.27-0.2,1.91-0.27c0.65-0.08,1.3-0.11,1.95-0.08
			c0.7,0.04,1.4,0.13,2.1,0.2c0.06,0.01,0.12,0.02,0.19,0.03c0.45,0.01,0.88,0.14,1.32,0.25c0.24,0.06,0.48,0.09,0.72,0.15
			c0.4,0.1,0.79,0.19,1.18,0.31c0.46,0.15,0.92,0.32,1.37,0.49c0.17,0.07,0.34,0.15,0.51,0.21C73.7,162.6,73.73,162.86,73.79,163.08
			z"/>
		<path d="M74.34,165.51c0.18,1.16,0.22,2.33,0.2,3.5c0,0.68-0.11,1.36-0.21,2.03c-0.12,0.86-0.34,1.71-0.65,2.52
			c-0.33,0.91-0.77,1.78-1.29,2.61c-0.79,1.22-1.74,2.3-2.85,3.24c-0.93,0.78-1.91,1.46-2.98,2.03c-0.32,0.17-0.62,0.34-0.95,0.52
			c-1.33-0.65-2.57-1.4-3.71-2.32c-0.62-0.51-1.21-1.05-1.74-1.65c-0.2-0.23-0.4-0.46-0.58-0.7l14.21-14.21
			c0.01,0.04,0.02,0.07,0.03,0.1c0.1,0.29,0.17,0.58,0.24,0.87c0.06,0.23,0.11,0.46,0.15,0.69C74.26,165,74.3,165.26,74.34,165.51z"
			/>
	</g>
	<g>
	</g>
</g>
<text transform="matrix(1 0 0 1 58.1608 169.3787)" class="st5 st6 st7">GHS</text>
<text transform="matrix(1 0 0 1 63.2925 177.6057)" class="st5 st2 st10">16</text>
<path class="st17" d="M65.09,236.86l-9.97-9.97c-0.4-0.4-0.4-1.04,0-1.44l9.97-9.97c0.4-0.4,1.04-0.4,1.44,0l9.97,9.97
	c0.4,0.4,0.4,1.04,0,1.44l-9.97,9.97C66.13,237.25,65.48,237.25,65.09,236.86z"/>
<text transform="matrix(1 0 0 1 60.8002 226.5175)" class="st5 st6 st7">NS</text>
<text transform="matrix(1 0 0 1 63.2925 232.5479)" class="st5 st2 st10">16</text>
<text transform="matrix(1 0 0 1 40.4681 255.9613)" class="st2 st8">SHS</text>
<path class="st11" d="M65.09,264.76l-9.97-9.97c-0.4-0.4-0.4-1.04,0-1.44l9.97-9.97c0.4-0.4,1.04-0.4,1.44,0l9.97,9.97
	c0.4,0.4,0.4,1.04,0,1.44l-9.97,9.97C66.13,265.16,65.48,265.16,65.09,264.76z"/>
<text transform="matrix(1 0 0 1 63.5651 253.421)" class="st6 st7">S</text>
<text transform="matrix(1 0 0 1 63.2925 260.4514)" class="st2 st10">16</text>
<text transform="matrix(1 0 0 1 31.9564 304.956)"><tspan x="0" y="0" class="st2 st8">Pinnacle</tspan><tspan x="-0.15" y="4.8" class="st2 st8">Sold-Off</tspan></text>
<path class="st18" d="M65.09,316.75l-9.97-9.97c-0.4-0.4-0.4-1.04,0-1.44l9.97-9.97c0.4-0.4,1.04-0.4,1.44,0l9.97,9.97
	c0.4,0.4,0.4,1.04,0,1.44l-9.97,9.97C66.13,317.15,65.48,317.15,65.09,316.75z"/>
<text transform="matrix(1 0 0 1 63.4672 305.4157)" class="st5 st6 st7">P</text>
<text transform="matrix(1 0 0 1 63.2925 312.446)" class="st5 st2 st10">16</text>
<text transform="matrix(1 0 0 1 36.0404 332.7365)"><tspan x="0" y="0" class="st2 st8">Fluent</tspan><tspan x="-6.82" y="4.8" class="st2 st8">Customer</tspan></text>
<text transform="matrix(1 0 0 1 37.7723 359.7663)" class="st2 st8">Alder</text>
<text transform="matrix(1 0 0 1 37.0965 391.1747)" class="st2 st8">Vivint</text>
<path class="st19" d="M65.09,344.53l-9.97-9.97c-0.4-0.4-0.4-1.04,0-1.44l9.97-9.97c0.4-0.4,1.04-0.4,1.44,0l9.97,9.97
	c0.4,0.4,0.4,1.04,0,1.44l-9.97,9.97C66.13,344.93,65.48,344.93,65.09,344.53z"/>
<text transform="matrix(1 0 0 1 62.5846 337.5918)" class="st6 st20">F</text>
<path class="st9" d="M65.81,351.46c2.92,0,5.84,0,8.76,0c0.45,0,0.45,0,0.45,0.45c0,2.01,0,4.02,0,6.03c0,0.79-0.06,1.58-0.19,2.36
	c-0.11,0.66-0.24,1.31-0.43,1.95c-0.23,0.78-0.49,1.55-0.8,2.3c-0.26,0.63-0.61,1.22-0.95,1.82c-0.22,0.39-0.44,0.78-0.71,1.13
	c-0.4,0.51-0.84,0.99-1.28,1.47c-0.49,0.53-1.03,0.99-1.61,1.42c-0.59,0.43-1.22,0.82-1.88,1.14c-0.38,0.19-0.76,0.38-1.15,0.54
	c-0.12,0.05-0.3,0.06-0.41,0.01c-0.54-0.24-1.07-0.49-1.58-0.77c-1.33-0.73-2.5-1.65-3.5-2.79c-0.68-0.78-1.28-1.61-1.77-2.52
	c-0.3-0.55-0.58-1.11-0.81-1.7c-0.22-0.57-0.43-1.13-0.63-1.71c-0.08-0.25-0.12-0.51-0.18-0.76c-0.05-0.22-0.12-0.44-0.16-0.67
	c-0.13-0.82-0.26-1.64-0.38-2.47c-0.03-0.24-0.02-0.48-0.02-0.72c0-2.03,0-4.06,0-6.09c0-0.07,0-0.13,0-0.2c0-0.14,0.08-0.2,0.2-0.2
	c0.11-0.01,0.22-0.01,0.33-0.01C60.01,351.46,62.91,351.46,65.81,351.46z"/>
<text transform="matrix(1 0 0 1 63.0402 360.0383)" class="st5 st6 st7">A</text>
<text transform="matrix(1 0 0 1 63.2925 367.0686)" class="st5 st2 st10">16</text>
<text transform="matrix(1 0 0 1 63.1801 388.0065)" class="st5 st6 st7">V</text>
<text transform="matrix(1 0 0 1 63.2925 395.0369)" class="st5 st2 st10">16</text>
<circle class="st12" cx="65.81" cy="441.23" r="10.19"/>
<text transform="matrix(1 0 0 1 27.3324 443.1694)" class="st2 st8">FrontPoint</text>
<text transform="matrix(1 0 0 1 61.1711 440.0012)" class="st5 st6 st7">FP</text>
<text transform="matrix(1 0 0 1 63.2925 447.0316)" class="st5 st2 st10">16</text>
<path d="M56.92,491.12c0.03-0.64,0.03-1.25,0.09-1.86c0.05-0.55,0.16-1.1,0.24-1.64c0.05-0.32,0.09-0.63,0.16-0.94
	c0.08-0.38,0.18-0.76,0.29-1.14c0.04-0.12,0.14-0.2,0.29-0.21c0.49-0.04,0.98-0.05,1.45-0.16c0.47-0.11,0.95-0.05,1.41-0.21
	c0.29-0.09,0.61-0.09,0.92-0.13c0.4-0.05,0.8-0.1,1.21-0.15c0.57-0.07,1.15-0.12,1.71-0.23c0.77-0.14,1.52-0.13,2.29,0.01
	c0.54,0.09,1.08,0.14,1.62,0.22c0.5,0.07,0.99,0.14,1.49,0.21c0.01,0,0.02,0.01,0.03,0.01c0.48,0.06,0.97,0.11,1.45,0.18
	c0.48,0.07,0.96,0.15,1.44,0.22c0.18,0.03,0.36,0.03,0.54,0.04c0.24,0.02,0.37,0.11,0.43,0.34c0.21,0.87,0.41,1.74,0.53,2.63
	c0.12,0.99,0.19,1.98,0.18,2.98c-0.01,0.86-0.05,1.71-0.17,2.56c-0.05,0.38-0.15,0.75-0.23,1.12c-0.05,0.22-0.09,0.44-0.15,0.65
	c-0.14,0.49-0.26,0.98-0.44,1.45c-0.24,0.63-0.52,1.25-0.85,1.84c-0.66,1.18-1.46,2.23-2.43,3.17c-0.95,0.92-2.03,1.68-3.17,2.35
	c-0.42,0.24-0.86,0.44-1.3,0.65c-0.07,0.03-0.19,0.04-0.26,0c-0.93-0.44-1.83-0.92-2.66-1.51c-1.12-0.79-2.13-1.71-2.99-2.79
	c-0.67-0.84-1.21-1.75-1.67-2.72c-0.32-0.68-0.58-1.38-0.79-2.1c-0.14-0.48-0.2-0.98-0.32-1.46
	C56.99,493.38,56.96,492.24,56.92,491.12z"/>
<text transform="matrix(1 0 0 1 61.3249 495.5656)" class="st5 st6 st7">SS</text>
<text transform="matrix(1 0 0 1 35.7083 519.1614)" class="st2 st8">Xfinity</text>
<text transform="matrix(1 0 0 1 37.5565 544.7833)" class="st2 st8">AT&amp;T</text>
<text transform="matrix(1 0 0 1 36.3363 573.3616)" class="st2 st8">Brinks</text>
<path class="st16" d="M56.92,516.61c0.03-0.64,0.03-1.25,0.09-1.86c0.05-0.55,0.16-1.1,0.24-1.64c0.05-0.32,0.09-0.63,0.16-0.94
	c0.08-0.38,0.18-0.76,0.29-1.14c0.04-0.12,0.14-0.2,0.29-0.21c0.49-0.04,0.98-0.05,1.45-0.16c0.47-0.11,0.95-0.05,1.41-0.21
	c0.29-0.09,0.61-0.09,0.92-0.13c0.4-0.05,0.8-0.1,1.21-0.15c0.57-0.07,1.15-0.12,1.71-0.23c0.77-0.14,1.52-0.13,2.29,0.01
	c0.54,0.09,1.08,0.14,1.62,0.22c0.5,0.07,0.99,0.14,1.49,0.21c0.01,0,0.02,0.01,0.03,0.01c0.48,0.06,0.97,0.11,1.45,0.18
	c0.48,0.07,0.96,0.15,1.44,0.22c0.18,0.03,0.36,0.03,0.54,0.04c0.24,0.02,0.37,0.11,0.43,0.34c0.21,0.87,0.41,1.74,0.53,2.63
	c0.12,0.99,0.19,1.98,0.18,2.98c-0.01,0.86-0.05,1.71-0.17,2.56c-0.05,0.38-0.15,0.75-0.23,1.12c-0.05,0.22-0.09,0.44-0.15,0.65
	c-0.14,0.49-0.26,0.98-0.44,1.45c-0.24,0.63-0.52,1.25-0.85,1.84c-0.66,1.18-1.46,2.23-2.43,3.17c-0.95,0.92-2.03,1.68-3.17,2.35
	c-0.42,0.24-0.86,0.44-1.3,0.65c-0.07,0.03-0.19,0.04-0.26,0c-0.93-0.44-1.83-0.92-2.66-1.51c-1.12-0.79-2.13-1.71-2.99-2.79
	c-0.67-0.84-1.21-1.75-1.67-2.72c-0.32-0.68-0.58-1.38-0.79-2.1c-0.14-0.48-0.2-0.98-0.32-1.46
	C56.99,518.86,56.96,517.72,56.92,516.61z"/>
<text transform="matrix(1 0 0 1 63.2431 518.3308)" class="st5 st6 st7">X</text>
<text transform="matrix(1 0 0 1 63.2925 525.3612)" class="st5 st2 st10">16</text>
<path class="st11" d="M65.74,555.22c-0.82-0.47-1.67-0.92-2.47-1.43c-0.62-0.39-1.19-0.83-1.74-1.28c-0.5-0.4-0.96-0.83-1.41-1.26
	c-0.55-0.52-1.02-1.1-1.43-1.69c-0.39-0.57-0.77-1.14-1.06-1.75c-0.27-0.56-0.53-1.12-0.66-1.72c-0.1-0.47-0.27-0.93-0.35-1.4
	c-0.18-0.99-0.28-1.98-0.17-2.98c0.06-0.54,0.13-1.07,0.22-1.6c0.07-0.41,0.23-0.79,0.59-1.12c0.94-0.85,1.99-1.57,3.23-2.11
	c0.6-0.26,1.21-0.47,1.85-0.64c0.5-0.13,1-0.2,1.5-0.31c0.03-0.01,0.07-0.01,0.11-0.01c0.95-0.01,1.89-0.23,2.84-0.04
	c0.14,0.03,0.29,0.01,0.44,0.02c0.5,0.01,0.98,0.1,1.46,0.23c0.37,0.1,0.77,0.16,1.14,0.27c0.7,0.21,1.39,0.47,2,0.83
	c0.5,0.29,1,0.58,1.46,0.9c0.39,0.27,0.71,0.6,1.09,0.88c0.49,0.36,0.52,0.85,0.63,1.32c0.25,1.08,0.23,2.16,0.17,3.25
	c-0.03,0.5-0.14,1.01-0.23,1.51c-0.06,0.31-0.13,0.63-0.24,0.94c-0.17,0.49-0.36,0.98-0.58,1.46c-0.23,0.49-0.48,0.97-0.76,1.44
	c-0.44,0.74-0.98,1.43-1.6,2.08c-0.79,0.83-1.66,1.59-2.64,2.28c-0.95,0.67-1.98,1.26-3.03,1.82
	C66.01,555.12,65.89,555.16,65.74,555.22z"/>
<text transform="matrix(1 0 0 1 58.5043 544.9528)" class="st6 st7">ATT</text>
<text transform="matrix(1 0 0 1 63.2925 550.9832)" class="st2 st10">16</text>
<path class="st17" d="M65.75,582.39c-0.23-0.46-0.62-0.69-1.02-0.85c-0.65-0.26-1.34-0.45-2-0.68c-0.97-0.35-1.96-0.67-2.86-1.19
	c-0.89-0.52-1.64-1.18-2.14-2.09c-0.33-0.61-0.56-1.26-0.61-1.96c-0.02-0.3-0.09-0.59-0.11-0.89c-0.03-0.73,0.09-1.45,0.22-2.16
	c0.05-0.29,0.1-0.59,0.16-0.88c0.05-0.23,0.1-0.46,0.16-0.68c0.2-0.66,0.4-1.31,0.6-1.97c0.06-0.2,0.12-0.41,0.17-0.61
	c0.22-0.8-0.05-1.52-0.47-2.17c-0.23-0.36-0.53-0.68-0.81-1.01c-0.13-0.15-0.14-0.21,0-0.34c0.37-0.35,0.74-0.7,1.11-1.04
	c0.47-0.44,0.95-0.88,1.42-1.31c0.21-0.19,0.24-0.19,0.45-0.02c0.54,0.44,1.13,0.78,1.77,1.04c0.23,0.09,0.49,0.13,0.74,0.17
	c0.29,0.05,0.59,0.11,0.88,0.1c0.72-0.04,1.42-0.21,2.06-0.56c0.23-0.13,0.4-0.11,0.64,0.01c0.45,0.23,0.92,0.43,1.44,0.46
	c0.07,0,0.14,0.05,0.22,0.05c0.25,0.01,0.51,0.01,0.76,0c0.09,0,0.19-0.05,0.28-0.04c0.47,0.01,0.89-0.16,1.3-0.34
	c0.49-0.21,0.94-0.49,1.35-0.83c0.32-0.26,0.33-0.25,0.63,0.03c0.4,0.38,0.8,0.75,1.21,1.12c0.39,0.36,0.78,0.72,1.16,1.08
	c0.24,0.23,0.24,0.26,0,0.5c-0.47,0.47-0.85,1-1.09,1.61c-0.18,0.46-0.27,0.93-0.11,1.43c0.17,0.53,0.3,1.08,0.45,1.62
	c0.1,0.36,0.22,0.7,0.32,1.06c0.08,0.29,0.13,0.58,0.2,0.87c0.07,0.34,0.16,0.69,0.21,1.03c0.16,1.13,0.2,2.26-0.08,3.38
	c-0.2,0.79-0.56,1.51-1.1,2.11c-0.57,0.63-1.26,1.11-2.03,1.48c-0.7,0.34-1.42,0.62-2.16,0.84c-0.38,0.11-0.77,0.24-1.14,0.38
	c-0.53,0.19-1.08,0.34-1.55,0.67c-0.16,0.11-0.29,0.27-0.44,0.41C65.9,582.27,65.84,582.31,65.75,582.39z"/>
<text transform="matrix(1 0 0 1 63.2782 571.8271)" class="st5 st6 st7">B</text>
<text transform="matrix(1 0 0 1 63.2925 578.8575)" class="st5 st2 st10">16</text>
<circle class="st12" cx="197.44" cy="49.45" r="8.08"/>
<g>
	<path class="st21" d="M196.59,48.29c0.26-0.26,0.26-0.69,0-0.95l-0.72-0.72c-0.26-0.26-0.69-0.26-0.95,0l-0.39,0.39
		c-0.34,0.34-0.39,0.87-0.13,1.27c1.14,1.72,2.66,3.25,4.39,4.39c0.4,0.27,0.93,0.21,1.27-0.13l0.39-0.39
		c0.26-0.26,0.26-0.69,0-0.95l-0.72-0.72c-0.26-0.26-0.69-0.26-0.95,0l-0.24,0.24c-0.79-0.64-1.55-1.41-2.19-2.19L196.59,48.29z"/>
</g>
<text transform="matrix(1 0 0 1 168.2868 71.9508)" class="st2 st8">Referral</text>
<circle class="st12" cx="197.44" cy="70.95" r="8.08"/>
<text transform="matrix(1 0 0 1 157.5988 94.6633)" class="st2 st8">Not Qualified</text>
<circle class="st14" cx="197.44" cy="92.92" r="8.08"/>
<g>
	<line class="st22" x1="197.44" y1="93.77" x2="197.44" y2="91.71"/>
	<g>
		<path class="st5" d="M197.44,94.41c-0.14,0-0.26,0.12-0.26,0.26c0,0.14,0.11,0.26,0.26,0.26c0.14,0,0.26-0.11,0.26-0.26
			C197.7,94.53,197.58,94.41,197.44,94.41L197.44,94.41z"/>
	</g>
	<polygon class="st22" points="200.4,95.57 194.48,95.57 197.44,89.66 	"/>
</g>
<text transform="matrix(1 0 0 1 155.1989 116.2495)" class="st2 st8">Not Interested</text>
<circle class="st14" cx="197.44" cy="114.51" r="8.08"/>
<g>
	<polygon class="st22" points="196.46,114.39 194.93,115.92 195.91,116.9 197.44,115.37 198.97,116.9 199.95,115.92 198.42,114.39 
		199.95,112.86 198.97,111.88 197.44,113.41 195.91,111.88 194.93,112.86 	"/>
</g>
<text transform="matrix(1 0 0 1 167.3068 137.7888)" class="st2 st8">Go Back</text>
<circle class="st23" cx="197.44" cy="136.05" r="8.08"/>
<g>
	<polyline class="st24" points="194.55,135.36 195.29,136.42 196.23,135.36 	"/>
	<path class="st24" d="M195.29,136.42c-0.13-1.7,1.04-2.89,2.43-2.94c1.39-0.05,2.56,1.03,2.61,2.42c0.05,1.39-1.03,2.56-2.42,2.61"
		/>
</g>
<text transform="matrix(1 0 0 1 162.6867 158.4835)" class="st2 st8">No English</text>
<circle class="st14" cx="197.44" cy="156.74" r="8.08"/>
<g>
	<path class="st22" d="M194.58,68.99v0.51l-0.96,0.26c-0.2,0.06-0.36,0.27-0.36,0.47v0.15h2.18"/>
	<path class="st22" d="M195.61,69v0.49l1,0.26c0.2,0.06,0.32,0.27,0.32,0.48v0.15h-1.85"/>
	<path class="st22" d="M196.22,67.92c0,0.67-0.5,1.21-1.11,1.21c-0.61,0-1.11-0.54-1.11-1.21c0-0.67,0.5-1.21,1.11-1.21
		C195.72,66.71,196.22,67.25,196.22,67.92z"/>
	<path class="st22" d="M196.21,67.71c-0.18,0.18-0.71,0.18-0.91-0.2c-0.37,0.37-0.97,0.37-1.27,0.16"/>
	<path class="st22" d="M199.27,68.99v0.51l-0.96,0.26c-0.2,0.06-0.36,0.27-0.36,0.47v0.15h2.18"/>
	<path class="st22" d="M200.3,69v0.5l1,0.26c0.2,0.06,0.32,0.27,0.32,0.48v0.15h-1.85"/>
	<path class="st22" d="M200.91,67.92c0,0.67-0.5,1.21-1.11,1.21c-0.61,0-1.11-0.54-1.11-1.21c0-0.67,0.5-1.21,1.11-1.21
		C200.41,66.71,200.91,67.25,200.91,67.92z"/>
	<path class="st22" d="M200.9,67.71c-0.18,0.18-0.71,0.18-0.91-0.2c-0.37,0.37-0.97,0.37-1.27,0.16"/>
	<path class="st22" d="M196.81,73.63v0.52l-0.94,0.27c-0.2,0.06-0.36,0.27-0.36,0.47v0.18h2.03"/>
	<path class="st22" d="M197.92,73.63v0.52l0.94,0.27c0.2,0.06,0.36,0.27,0.36,0.47v0.18h-2.03"/>
	<path class="st22" d="M198.48,72.58c0,0.67-0.5,1.21-1.11,1.21c-0.61,0-1.11-0.54-1.11-1.21c0-0.67,0.5-1.21,1.11-1.21
		C197.98,71.37,198.48,71.91,198.48,72.58z"/>
	<path class="st22" d="M198.46,72.36c-0.18,0.18-0.71,0.19-0.91-0.18c-0.37,0.37-0.97,0.37-1.27,0.16"/>
	<line class="st22" x1="194.41" y1="71" x2="195.33" y2="71.93"/>
	<line class="st22" x1="200.32" y1="71" x2="199.4" y2="71.93"/>
</g>
<g>
	<path class="st22" d="M201.12,156.36c0,1.66-1.65,3-3.68,3c-0.45,0-0.89-0.07-1.29-0.19l-2.13,1.04l0.85-1.7
		c-0.68-0.54-1.1-1.3-1.1-2.14c0-1.66,1.65-3,3.68-3C199.47,153.36,201.12,154.7,201.12,156.36z"/>
	<circle class="st5" cx="197.57" cy="157.88" r="0.24"/>
	<path class="st22" d="M196.64,155.79c0-0.53,0.43-0.98,0.96-0.98c0.53,0,0.96,0.42,0.96,0.95c0,0.53-0.46,0.89-0.99,0.89v0.51"/>
</g>
<text transform="matrix(1 0 0 1 170.5627 179.4597)" class="st2 st8">Moved</text>
<circle class="st14" cx="197.44" cy="177.72" r="8.08"/>
<g>
	<circle class="st22" cx="195.07" cy="179.66" r="0.66"/>
	<circle class="st22" cx="199.82" cy="179.66" r="0.66"/>
	<polyline class="st22" points="194.41,179.79 193.61,179.79 193.61,177.81 194.41,177.15 195.2,175.83 196.78,175.83 
		196.78,175.04 201.27,175.04 201.27,179.79 200.47,179.79 	"/>
	<line class="st22" x1="195.73" y1="179.79" x2="199.16" y2="179.79"/>
	<line class="st22" x1="196.78" y1="175.7" x2="196.78" y2="179"/>
	<line class="st22" x1="193.61" y1="179" x2="201.27" y2="179"/>
</g>
<text transform="matrix(1 0 0 1 159.9347 199.1689)" class="st2 st8">Looks Good</text>
<circle class="st23" cx="197.44" cy="197.43" r="8.08"/>
<g>
	<path class="st24" d="M199.7,198.64L199.7,198.64c0.24,0,0.45,0.11,0.45,0.45c0,0.24-0.22,0.34-0.45,0.34h-0.34
		c0.24,0,0.45,0.1,0.45,0.34c0,0.24-0.1,0.34-0.34,0.34c0,0-1.21,0-1.92,0c-0.81,0-1.04-0.2-2.03-0.34v-2.37
		c0.7,0,1.92-1.31,1.92-2.45c0-0.45,0.62-0.62,0.85,0.2c0.14,0.51-0.29,1.57-0.29,1.57h2.26c0.24,0,0.45,0.22,0.45,0.45
		c0,0.24-0.15,0.56-0.45,0.56h-0.36c0.31,0,0.58,0.22,0.58,0.45c0,0.24-0.22,0.45-0.45,0.45H199.7"/>
	<rect x="194.17" y="196.94" class="st24" width="1.35" height="3.39"/>
	<g>
		<path d="M195.02,199.65c-0.08,0-0.14,0.06-0.14,0.14s0.06,0.14,0.14,0.14c0.08,0,0.14-0.06,0.14-0.14S195.1,199.65,195.02,199.65
			L195.02,199.65z"/>
	</g>
</g>
<text transform="matrix(1 0 0 1 160.8786 220.0043)" class="st2 st8">Time-Buyer</text>
<circle class="st23" cx="197.44" cy="218.26" r="8.08"/>
<g>
	<circle class="st24" cx="197.44" cy="218.19" r="3.38"/>
	<line class="st24" x1="199.2" y1="219.95" x2="197.77" y2="218.52"/>
	<circle class="st24" cx="197.44" cy="218.19" r="0.47"/>
	<line class="st24" x1="197.32" y1="216.57" x2="197.32" y2="217.73"/>
</g>
<text transform="matrix(1 0 0 1 157.8429 239.8542)" class="st2 st8">DIY Prospect</text>
<circle class="st23" cx="197.44" cy="238.11" r="8.08"/>
<text transform="matrix(1 0 0 1 192.8953 240.0094)" class="st25 st10">DIY</text>
<text transform="matrix(1 0 0 1 151.319 259.4226)" class="st2 st8">Renewal Eligible</text>
<circle class="st23" cx="197.44" cy="257.68" r="8.08"/>
<g>
	<polyline class="st24" points="199.72,257.35 199.72,261.11 194,261.11 194,254.91 198.81,254.91 	"/>
	<path class="st24" d="M197.93,257.65l-0.83,0.36l0.36-0.83l2.86-2.86c0.28-0.28,0.76,0.2,0.48,0.48L197.93,257.65z"/>
	<line class="st24" x1="199.96" y1="254.67" x2="200.44" y2="255.15"/>
</g>
<text transform="matrix(1 0 0 1 174.2824 279.5541)" class="st2 st8">Busy</text>
<circle class="st23" cx="197.44" cy="277.81" r="8.08"/>
<g>
	<g>
		<g>
			<line class="st24" x1="197.53" y1="278.32" x2="197.53" y2="277.39"/>
			<path class="st24" d="M195.84,277.41v0.91l-1.83,0.68c-0.42,0.15-0.71,0.55-0.71,1V281h3.8"/>
			<path class="st24" d="M198.45,275.52c0,1.18-0.79,2.13-1.78,2.13c-0.98,0-1.78-0.95-1.78-2.13c0-1.18,0.79-2.13,1.78-2.13
				C197.66,273.39,198.45,274.35,198.45,275.52z"/>
			<path class="st24" d="M198.44,275.33c-0.06,0.01-0.11,0-0.17,0.01c-0.6,0.12-0.99-0.1-1.33-0.69c-0.2,0.38-0.82,0.69-1.34,0.69
				c-0.25,0-0.47-0.05-0.69-0.17"/>
		</g>
	</g>
	<g>
		<circle class="st24" cx="199.78" cy="279.86" r="1.79"/>
		<line class="st24" x1="200.61" y1="280.69" x2="200.06" y2="280.15"/>
		<circle class="st26" cx="199.78" cy="279.86" r="0.25"/>
		<line class="st24" x1="199.72" y1="279.01" x2="199.72" y2="279.5"/>
	</g>
</g>
<text transform="matrix(1 0 0 1 153.383 297.2164)"><tspan x="0" y="0" class="st2 st8">Decision-Maker</tspan><tspan x="10.26" y="4.8" class="st2 st8">Not Home</tspan></text>
<circle class="st23" cx="197.44" cy="297.47" r="8.08"/>
<g>
	<g>
		<line class="st24" x1="197.58" y1="297.91" x2="197.58" y2="296.99"/>
		<path class="st24" d="M195.9,297v0.91l-1.82,0.67c-0.42,0.15-0.7,0.55-0.7,1v0.99h3.78"/>
		<path class="st24" d="M198.49,295.13c0,1.17-0.79,2.12-1.76,2.12c-0.97,0-1.76-0.95-1.76-2.12c0-1.17,0.79-2.12,1.76-2.12
			C197.7,293.01,198.49,293.96,198.49,295.13z"/>
		<path class="st24" d="M198.48,294.94c-0.06,0.01-0.11,0-0.17,0.01c-0.6,0.12-0.99-0.1-1.32-0.68c-0.2,0.38-0.82,0.68-1.33,0.68
			c-0.25,0-0.47-0.05-0.68-0.16"/>
	</g>
	<circle class="st24" cx="199.82" cy="299.45" r="1.68"/>
	<line class="st24" x1="200.52" y1="298.75" x2="199.12" y2="300.15"/>
	<line class="st24" x1="200.52" y1="300.15" x2="199.12" y2="298.75"/>
</g>
</svg>
