<?xml version="1.0" encoding="utf-8"?>
<!-- Generator: Adobe Illustrator 22.1.0, SVG Export Plug-In . SVG Version: 6.00 Build 0)  -->
<svg version="1.1" id="Layer_1" xmlns="http://www.w3.org/2000/svg" xmlns:xlink="http://www.w3.org/1999/xlink" x="0px" y="0px"
	 viewBox="0 0 100 60" style="enable-background:new 0 0 100 60;" xml:space="preserve">
<style type="text/css">
	.st0{fill:#BCBEC0;}
	.st1{font-family:'Gotham-Book';}
	.st2{font-size:4.3848px;}
	.st3{fill:#414042;}
</style>
<g>
	<text transform="matrix(1 0 0 1 60.4424 50.5)" class="st0 st1 st2">by</text>
	<g>
		<g>
			<g>
				<g>
					<path class="st0" d="M67.1,48.1h4.7c0.2,0,0.3,0.1,0.4,0.2c0.1,0.1,0.2,0.3,0.2,0.4v1.2h-1.3v-0.4h-2.2v1.6h2.2v1.4h-2.2v3
						h-1.4v-6h-0.2L67.1,48.1z"/>
				</g>
				<g>
					<path class="st0" d="M74.4,48.1v6h0.4v1.3h-1.2c-0.2,0-0.3-0.1-0.4-0.2c-0.1-0.1-0.2-0.3-0.2-0.4v-5.4h-0.4v-1.3L74.4,48.1z"/>
				</g>
				<g>
					<path class="st0" d="M76.5,49.7v3.8c0,0.2,0.1,0.4,0.3,0.5c0.1,0.1,0.2,0.1,0.4,0.1c0.2,0,0.3,0,0.6-0.1
						c0.3-0.1,0.6-0.3,0.8-0.6v-3.1c0-0.2,0.1-0.3,0.2-0.4c0.1-0.1,0.3-0.2,0.4-0.2h1.2v1.4h-0.4v3h0.4v1.4h-0.4h-1.3V55
						c-0.3,0.2-0.6,0.3-1,0.4c-0.2,0-0.4,0.1-0.6,0.1c-0.3,0-0.5,0-0.7-0.1c-0.3-0.1-0.6-0.3-0.8-0.6c-0.2-0.3-0.3-0.6-0.3-0.9v-2.8
						h-0.4v-1.4H76.5z"/>
				</g>
				<g>
					<path class="st0" d="M81.6,50c0.3-0.2,0.7-0.3,1.1-0.3c0.4,0,0.8,0,1.2,0.2c0.4,0.1,0.7,0.4,1,0.7c0.2,0.2,0.4,0.4,0.5,0.7
						c0.1,0.2,0.2,0.4,0.3,0.6l-3.4,1.9c0.3,0.2,0.5,0.3,0.9,0.3c0.3,0,0.6,0,0.9-0.2c0.5-0.3,0.8-0.7,0.8-1.3l1.2,0.7
						c-0.3,0.7-0.7,1.3-1.4,1.7c-0.4,0.2-0.8,0.3-1.2,0.4c-0.4,0-0.8,0-1.2-0.1c-0.4-0.1-0.7-0.3-1-0.5c-0.3-0.2-0.5-0.5-0.7-0.9
						c-0.3-0.6-0.4-1.2-0.4-1.9c0.1-0.4,0.2-0.8,0.4-1.2C80.9,50.5,81.2,50.2,81.6,50z M81.6,52.6l2.3-1.2c-0.2-0.2-0.4-0.4-0.7-0.4
						c-0.3-0.1-0.6,0-1,0.2c-0.3,0.1-0.4,0.3-0.6,0.6C81.6,52,81.5,52.3,81.6,52.6z"/>
				</g>
				<g>
					<path class="st0" d="M89.8,55.5v-3.9c0-0.3-0.1-0.5-0.4-0.5c-0.1,0-0.2,0-0.2,0c-0.1,0-0.3,0-0.5,0.1c-0.4,0.1-0.7,0.3-0.8,0.6
						v3.2c0,0.2-0.1,0.3-0.2,0.4c-0.1,0.1-0.3,0.2-0.4,0.2H86v-1.3h0.4v-3H86v-1.4h1.8v0.3c0.2-0.1,0.5-0.2,0.8-0.3
						c0.3-0.1,0.5-0.1,0.8-0.1c0.1,0,0.2,0,0.3,0c0.4,0,0.8,0.2,1,0.4c0.3,0.3,0.5,0.7,0.5,1.2v2.9h0.4v1.3H89.8z"/>
				</g>
				<g>
					<path class="st0" d="M93.2,53.8c0,0.2,0,0.3,0.1,0.3c0.1,0.1,0.1,0.1,0.2,0.1c0,0,0,0,0.1,0c0.1,0,0.2-0.1,0.3-0.1
						c0.1-0.1,0.2-0.1,0.3-0.2c0.1-0.1,0.2-0.1,0.2-0.2l0.5,0.9c-0.3,0.3-0.5,0.5-0.8,0.6c-0.3,0.1-0.6,0.2-0.8,0.2
						c-0.4,0-0.7-0.1-0.9-0.2c-0.2-0.1-0.3-0.3-0.4-0.5c-0.1-0.2-0.2-0.5-0.2-0.9V51h-0.2l-0.3-1.3h0.5V48h1.3v1.7h0.5l0.3,1.3h-0.8
						V53.8z"/>
				</g>
			</g>
		</g>
	</g>
</g>
<g>
	<path class="st3" d="M92.3,42.6c-0.1-0.2-0.2-0.4-0.4-0.6h0L80.6,27.4l9-9.5c0.2-0.2,0.3-0.3,0.3-0.4C90,17.3,90,17.2,90,17
		c0-0.6-0.4-0.9-1.2-0.9H82c-0.5,0-1,0.2-1.4,0.6l-7.9,8.8V9.2c0-0.1,0-0.3-0.1-0.5c0-0.2-0.1-0.3-0.2-0.5c-0.1-0.1-0.3-0.3-0.4-0.4
		c-0.2-0.1-0.4-0.1-0.7-0.1h-5.3c-0.4,0-0.8,0-1,0.1c-0.2,0.1-0.4,0.2-0.5,0.3c-0.1,0.1-0.2,0.3-0.2,0.5c0,0.2,0,0.4,0,0.7v17
		c-0.2-0.7-0.4-1.4-0.7-2.1c-0.8-1.8-1.8-3.3-3.1-4.6c-1.3-1.3-2.8-2.3-4.6-3.1c-1.8-0.7-3.6-1.1-5.6-1.1c-1.3,0-2.6,0.2-3.9,0.5
		c-1.2,0.3-2.4,0.8-3.5,1.4c-1.1,0.6-2,1.4-2.9,2.2c-0.9,0.9-1.6,1.8-2.2,2.9c-0.6,1.1-1.1,2.2-1.5,3.5c-0.1,0.4-0.2,0.7-0.3,1.1
		c-0.1-1.8-0.5-3.3-1-4.6c-0.7-1.7-1.7-3.1-3-4.1s-2.7-1.8-4.3-2.3c-1.6-0.5-3.4-0.7-5.1-0.7c-1.8,0-3.5,0.2-5.1,0.7
		c-1.6,0.4-3.1,1.2-4.3,2.2s-2.2,2.4-3,4.1c-0.7,1.7-1.1,3.8-1.1,6.3l0.1,14.2c0,0.2,0.1,0.5,0.3,0.7c0.2,0.2,0.4,0.3,0.8,0.3h6.2
		c0.3,0,0.5-0.1,0.7-0.3c0.2-0.2,0.3-0.4,0.3-0.7l-0.1-14.3c0-0.9,0.1-1.8,0.4-2.5c0.3-0.7,0.7-1.3,1.1-1.8c0.5-0.5,1-0.9,1.7-1.1
		c0.6-0.2,1.3-0.4,2-0.4c0.7,0,1.3,0.1,2,0.3c0.6,0.2,1.2,0.6,1.7,1c0.5,0.5,0.9,1.1,1.2,1.8c0.3,0.7,0.4,1.6,0.4,2.7l0.1,14.3
		c0,0.3,0.1,0.5,0.4,0.7c0.2,0.2,0.5,0.3,0.7,0.3h6.4c0.2,0,0.4-0.1,0.6-0.3c0.2-0.2,0.2-0.4,0.2-0.7l-0.1-9.8
		c0.1,0.2,0.1,0.5,0.2,0.7c0.3,1.2,0.8,2.4,1.5,3.5c0.6,1.1,1.4,2,2.2,2.9c0.9,0.9,1.8,1.6,2.9,2.2c1.1,0.6,2.2,1.1,3.5,1.4
		c1.2,0.3,2.5,0.5,3.9,0.5c1.3,0,2.6-0.2,3.8-0.5c1.2-0.3,2.4-0.8,3.4-1.4c1.1-0.6,2-1.4,2.9-2.2c0.9-0.9,1.6-1.8,2.2-2.9
		c0.6-1.1,1.1-2.2,1.5-3.5c0-0.1,0-0.2,0.1-0.3v8.9c0,0,0,0.1,0.1,0.3c0.1,0.2,0.1,0.3,0.2,0.5c0.1,0.2,0.3,0.3,0.5,0.5
		c0.2,0.1,0.4,0.2,0.7,0.2h5.5c0.3,0,0.6-0.1,0.7-0.2c0.2-0.1,0.3-0.3,0.5-0.5c0.1-0.2,0.2-0.4,0.2-0.6c0-0.2,0.1-0.3,0.1-0.5v-7.1
		l2.4-2.5l7.2,10.2c0.3,0.4,0.5,0.7,0.7,0.9c0.2,0.2,0.5,0.3,0.7,0.3h7.4c0.4,0,0.6-0.1,0.8-0.2c0.2-0.1,0.3-0.4,0.3-0.7
		C92.4,43,92.4,42.8,92.3,42.6z M56.2,32.8c-0.3,0.8-0.7,1.6-1.2,2.2c-0.5,0.6-1.2,1.1-2,1.5c-0.8,0.4-1.6,0.5-2.6,0.5
		c-1,0-1.9-0.2-2.6-0.5c-0.8-0.4-1.5-0.8-2-1.5c-0.5-0.6-1-1.3-1.3-2.2C44.2,31.9,44,31,44,30.1c0-0.9,0.1-1.8,0.5-2.7
		c0.3-0.8,0.7-1.6,1.3-2.2c0.5-0.6,1.2-1.2,2-1.5c0.8-0.4,1.7-0.6,2.6-0.6c1,0,1.8,0.2,2.6,0.6c0.8,0.4,1.4,0.9,2,1.5
		c0.5,0.6,0.9,1.4,1.2,2.2c0.3,0.8,0.4,1.7,0.4,2.7C56.6,31,56.4,31.9,56.2,32.8z"/>
	<path class="st3" d="M25.3,31.9c-0.7,0-1.2,0.5-1.2,1.2s0.5,1.2,1.2,1.2c0.7,0,1.2-0.5,1.2-1.2S26,31.9,25.3,31.9z"/>
	<path class="st3" d="M22.8,8l8.5,5.7l1.3,0.9v0l5.6,3.8c0.1,0,0.2,0,0.2,0l1.1-1.6c0-0.1,0-0.2,0-0.2L32.6,12c0,0-0.1-0.1-0.1-0.1
		V5.1c0-0.1-0.1-0.1-0.1-0.1h-5.9c-0.1,0-0.1,0.1-0.1,0.1v2.4c0,0.1-0.1,0.2-0.2,0.1l-3.3-2.2c0,0-0.1,0-0.2,0L6,16.5
		c-0.1,0-0.1,0.1,0,0.2l1.1,1.6c0,0.1,0.1,0.1,0.2,0L22.6,8C22.7,8,22.7,8,22.8,8z"/>
</g>
</svg>
