<?xml version="1.0" encoding="utf-8"?>
<!-- Generator: Adobe Illustrator 23.0.1, SVG Export Plug-In . SVG Version: 6.00 Build 0)  -->
<svg version="1.1" id="Layer_1" xmlns="http://www.w3.org/2000/svg" xmlns:xlink="http://www.w3.org/1999/xlink" x="0px" y="0px"
	 viewBox="0 0 17 17" style="enable-background:new 0 0 17 17;" xml:space="preserve">
<style type="text/css">
	.st0{fill:#E3D900;}
	.st1{fill:none;stroke:#000000;stroke-width:0.5;stroke-linecap:round;stroke-linejoin:round;stroke-miterlimit:10;}
	.st2{fill:none;stroke:#000000;stroke-width:0.3;stroke-linecap:round;stroke-linejoin:round;stroke-miterlimit:10;}
</style>
<circle class="st0" cx="8.48" cy="8.53" r="8.4"/>
<g>
	<g>
		<g>
			<line class="st1" x1="8.57" y1="9.06" x2="8.57" y2="8.1"/>
			<path class="st1" d="M6.82,8.11v0.95l-1.9,0.7c-0.44,0.16-0.73,0.57-0.73,1.04v1.03h3.95"/>
			<path class="st1" d="M9.53,6.16c0,1.22-0.83,2.21-1.84,2.21c-1.02,0-1.84-0.99-1.84-2.21c0-1.22,0.83-2.21,1.84-2.21
				C8.7,3.94,9.53,4.93,9.53,6.16z"/>
			<path class="st1" d="M9.52,5.96c-0.06,0.01-0.11,0-0.17,0.01C8.72,6.09,8.31,5.86,7.97,5.26c-0.21,0.4-0.86,0.71-1.39,0.71
				c-0.26,0-0.49-0.05-0.71-0.17"/>
		</g>
	</g>
	<g>
		<circle class="st1" cx="10.91" cy="10.66" r="1.86"/>
		<line class="st1" x1="11.76" y1="11.52" x2="11.2" y2="10.96"/>
		<circle class="st2" cx="10.91" cy="10.66" r="0.26"/>
		<line class="st1" x1="10.84" y1="9.77" x2="10.84" y2="10.28"/>
	</g>
</g>
</svg>
