<?xml version="1.0" encoding="utf-8"?>
<!-- Generator: Adobe Illustrator 23.0.1, SVG Export Plug-In . SVG Version: 6.00 Build 0)  -->
<svg version="1.1" id="Layer_1" xmlns="http://www.w3.org/2000/svg" xmlns:xlink="http://www.w3.org/1999/xlink" x="0px" y="0px"
	 viewBox="0 0 17 17" style="enable-background:new 0 0 17 17;" xml:space="preserve">
<style type="text/css">
	.st0{fill:#8DC63F;}
	.st1{fill:none;stroke:#FFFFFF;stroke-width:0.5;stroke-linejoin:round;stroke-miterlimit:10;}
</style>
<circle class="st0" cx="8.44" cy="8.45" r="8.08"/>
<g>
	<path class="st1" d="M7.59,7.29c0.26-0.26,0.26-0.69,0-0.95L6.87,5.62c-0.26-0.26-0.69-0.26-0.95,0L5.53,6.01
		C5.19,6.35,5.13,6.88,5.4,7.29c1.14,1.72,2.66,3.25,4.39,4.39c0.4,0.27,0.93,0.21,1.27-0.13l0.39-0.39c0.26-0.26,0.26-0.69,0-0.95
		l-0.72-0.72c-0.26-0.26-0.69-0.26-0.95,0L9.54,9.72C8.76,9.08,7.99,8.31,7.35,7.53L7.59,7.29z"/>
</g>
</svg>
