<?xml version="1.0" encoding="utf-8"?>
<!-- Generator: Adobe Illustrator 23.0.1, SVG Export Plug-In . SVG Version: 6.00 Build 0)  -->
<svg version="1.1" id="Layer_1" xmlns="http://www.w3.org/2000/svg" xmlns:xlink="http://www.w3.org/1999/xlink" x="0px" y="0px"
	 viewBox="0 0 17 17" style="enable-background:new 0 0 17 17;" xml:space="preserve">
<style type="text/css">
	.st0{fill:#E3D900;}
	.st1{fill:none;stroke:#000000;stroke-width:0.5;stroke-linecap:round;stroke-linejoin:round;stroke-miterlimit:10;}
</style>
<circle class="st0" cx="8.49" cy="8.5" r="8.41"/>
<g>
	<g>
		<line class="st1" x1="8.64" y1="8.95" x2="8.64" y2="7.99"/>
		<path class="st1" d="M6.89,8.01v0.95L5,9.65c-0.44,0.16-0.73,0.57-0.73,1.04v1.03H8.2"/>
		<path class="st1" d="M9.59,6.06c0,1.22-0.82,2.2-1.84,2.2c-1.01,0-1.84-0.99-1.84-2.2c0-1.22,0.82-2.2,1.84-2.2
			C8.77,3.86,9.59,4.85,9.59,6.06z"/>
		<path class="st1" d="M9.58,5.87c-0.06,0.01-0.11,0-0.17,0.01C8.78,6,8.38,5.77,8.03,5.17c-0.21,0.4-0.85,0.71-1.38,0.71
			c-0.26,0-0.49-0.05-0.71-0.17"/>
	</g>
	<circle class="st1" cx="10.96" cy="10.56" r="1.75"/>
	<line class="st1" x1="11.69" y1="9.83" x2="10.24" y2="11.28"/>
	<line class="st1" x1="11.69" y1="11.28" x2="10.24" y2="9.83"/>
</g>
</svg>
