<?xml version="1.0" encoding="utf-8"?>
<!-- Generator: Adobe Illustrator 23.0.1, SVG Export Plug-In . SVG Version: 6.00 Build 0)  -->
<svg version="1.1" id="Layer_1" xmlns="http://www.w3.org/2000/svg" xmlns:xlink="http://www.w3.org/1999/xlink" x="0px" y="0px"
	 viewBox="0 0 17 17" style="enable-background:new 0 0 17 17;" xml:space="preserve">
<style type="text/css">
	.st0{fill:#E3D900;}
	.st1{fill:none;stroke:#000000;stroke-width:0.5;stroke-linecap:round;stroke-linejoin:round;stroke-miterlimit:10;}
</style>
<circle class="st0" cx="8.51" cy="8.49" r="8.49"/>
<g>
	<path class="st1" d="M10.88,9.77L10.88,9.77c0.25,0,0.47,0.12,0.47,0.47c0,0.25-0.23,0.36-0.47,0.36h-0.36
		c0.25,0,0.47,0.11,0.47,0.36c0,0.25-0.11,0.36-0.36,0.36c0,0-1.27,0-2.02,0c-0.85,0-1.09-0.21-2.14-0.36V8.46
		c0.73,0,2.02-1.37,2.02-2.57c0-0.47,0.65-0.65,0.9,0.21c0.15,0.53-0.3,1.64-0.3,1.64h2.37c0.25,0,0.47,0.23,0.47,0.47
		c0,0.25-0.15,0.59-0.47,0.59H11.1c0.32,0,0.61,0.23,0.61,0.47c0,0.25-0.23,0.47-0.47,0.47H10.88"/>
	<rect x="5.07" y="7.98" class="st1" width="1.42" height="3.56"/>
	<g>
		<path d="M5.96,10.82c-0.08,0-0.15,0.07-0.15,0.15c0,0.08,0.07,0.15,0.15,0.15c0.08,0,0.15-0.07,0.15-0.15
			C6.11,10.89,6.05,10.82,5.96,10.82L5.96,10.82z"/>
	</g>
</g>
</svg>
