<?xml version="1.0" encoding="utf-8"?>
<!-- Generator: Adobe Illustrator 23.0.1, SVG Export Plug-In . SVG Version: 6.00 Build 0)  -->
<svg version="1.1" id="Layer_1" xmlns="http://www.w3.org/2000/svg" xmlns:xlink="http://www.w3.org/1999/xlink" x="0px" y="0px"
	 viewBox="0 0 17 17" style="enable-background:new 0 0 17 17;" xml:space="preserve">
<style type="text/css">
	.st0{fill:#E3D900;}
</style>
<circle class="st0" cx="8.5" cy="8.5" r="8.5"/>
<g>
	<path d="M7.2,6.2C7.5,5.8,8,5.6,8.7,5.6c0.6,0,1.1,0.2,1.4,0.5c0.4,0.3,0.5,0.8,0.5,1.3c0,0.3-0.1,0.6-0.2,0.8S10,8.6,9.6,9
		C9.3,9.2,9.1,9.5,9.1,9.7C9,9.9,8.9,10.1,8.9,10.5H8.1c0-0.4,0-0.8,0.1-1C8.4,9.2,8.6,8.9,9,8.6l0.4-0.3C9.4,8.2,9.5,8.1,9.6,8
		c0.1-0.2,0.2-0.4,0.2-0.6c0-0.3-0.1-0.5-0.3-0.7C9.3,6.4,9,6.3,8.6,6.3c-0.5,0-0.8,0.2-1,0.5C7.5,7,7.4,7.3,7.4,7.7H6.6
		C6.6,7.1,6.8,6.6,7.2,6.2z M8.1,11.2H9v0.9H8.1V11.2z"/>
</g>
</svg>
