<?xml version="1.0" encoding="utf-8"?>
<!-- Generator: Adobe Illustrator 23.0.1, SVG Export Plug-In . SVG Version: 6.00 Build 0)  -->
<svg version="1.1" id="Layer_1" xmlns="http://www.w3.org/2000/svg" xmlns:xlink="http://www.w3.org/1999/xlink" x="0px" y="0px"
	 viewBox="0 0 17 17" style="enable-background:new 0 0 17 17;" xml:space="preserve">
<style type="text/css">
	.st0{fill:#EF4136;}
	.st1{fill:none;stroke:#FFFFFF;stroke-width:0.5;stroke-linecap:round;stroke-linejoin:round;stroke-miterlimit:10;}
	.st2{fill:#FFFFFF;}
</style>
<circle class="st0" cx="8.45" cy="8.52" r="8.45"/>
<g>
	<path class="st1" d="M12.3,8.12c0,1.73-1.72,3.13-3.84,3.13c-0.47,0-0.93-0.07-1.35-0.2l-2.23,1.08l0.89-1.78
		C5.05,9.78,4.61,8.99,4.61,8.12c0-1.73,1.72-3.13,3.84-3.13C10.58,4.98,12.3,6.38,12.3,8.12z"/>
	<circle class="st2" cx="8.59" cy="9.71" r="0.25"/>
	<path class="st1" d="M7.62,7.53c0-0.55,0.45-1.02,1-1.02c0.55,0,1,0.44,1,0.99c0,0.55-0.48,0.93-1.04,0.93v0.53"/>
</g>
</svg>
