<?xml version="1.0" encoding="utf-8"?>
<!-- Generator: Adobe Illustrator 23.0.1, SVG Export Plug-In . SVG Version: 6.00 Build 0)  -->
<svg version="1.1" id="Layer_1" xmlns="http://www.w3.org/2000/svg" xmlns:xlink="http://www.w3.org/1999/xlink" x="0px" y="0px"
	 viewBox="0 0 17 17" style="enable-background:new 0 0 17 17;" xml:space="preserve">
<style type="text/css">
	.st0{fill:#E3D900;}
	.st1{fill:none;}
	.st2{fill:none;stroke:#000000;stroke-miterlimit:10;}
</style>
<circle class="st0" cx="8.4" cy="8.7" r="8.1"/>
<line class="st1" x1="16.7" y1="-8.3" x2="16.7" y2="0.5"/>
<path class="st2" d="M4.1,5.9l-0.1,6.4l0,0.2c0,0.3,0.2,0.6,0.5,0.6h0.7h5.8"/>
<line class="st2" x1="6.9" y1="5.9" x2="11.5" y2="5.9"/>
<line class="st2" x1="6.9" y1="7.8" x2="11.5" y2="7.8"/>
<line class="st2" x1="6.9" y1="9.7" x2="9.7" y2="9.7"/>
<path class="st2" d="M12.5,11.3H6c-0.2,0-0.3-0.1-0.3-0.3V4.7c0-0.2,0.1-0.3,0.3-0.3h6.5c0.2,0,0.3,0.1,0.3,0.3V11
	C12.8,11.2,12.7,11.3,12.5,11.3z"/>
</svg>
