<?xml version="1.0" encoding="utf-8"?>
<!-- Generator: Adobe Illustrator 23.0.1, SVG Export Plug-In . SVG Version: 6.00 Build 0)  -->
<svg version="1.1" id="Layer_1" xmlns="http://www.w3.org/2000/svg" xmlns:xlink="http://www.w3.org/1999/xlink" x="0px" y="0px"
	 viewBox="0 0 17 17" style="enable-background:new 0 0 17 17;" xml:space="preserve">
<style type="text/css">
	.st0{fill:none;stroke:#FFFFFF;stroke-width:0.5;stroke-linejoin:round;stroke-miterlimit:10;}
	.st1{fill:#8DC63F;}
	.st2{fill:none;stroke:#FFFFFF;stroke-width:0.5;stroke-linecap:round;stroke-linejoin:round;stroke-miterlimit:10;}
</style>
<g>
	<path class="st0" d="M7.59,7.29c0.26-0.26,0.26-0.69,0-0.95L6.87,5.62c-0.26-0.26-0.69-0.26-0.95,0L5.53,6.01
		C5.19,6.35,5.13,6.88,5.4,7.29c1.14,1.72,2.66,3.25,4.39,4.39c0.4,0.27,0.93,0.21,1.27-0.13l0.39-0.39c0.26-0.26,0.26-0.69,0-0.95
		l-0.72-0.72c-0.26-0.26-0.69-0.26-0.95,0L9.54,9.72C8.76,9.08,7.99,8.31,7.35,7.53L7.59,7.29z"/>
</g>
<circle class="st1" cx="8.46" cy="8.71" r="8.08"/>
<g>
	<path class="st2" d="M5.6,6.75v0.51L4.64,7.52c-0.2,0.06-0.36,0.27-0.36,0.47v0.15h2.18"/>
	<path class="st2" d="M6.63,6.77v0.49l1,0.26c0.2,0.06,0.32,0.27,0.32,0.48v0.15H6.09"/>
	<path class="st2" d="M7.24,5.68c0,0.67-0.5,1.21-1.11,1.21c-0.61,0-1.11-0.54-1.11-1.21c0-0.67,0.5-1.21,1.11-1.21
		C6.74,4.48,7.24,5.02,7.24,5.68z"/>
	<path class="st2" d="M7.23,5.47c-0.18,0.18-0.71,0.18-0.91-0.2C5.95,5.65,5.35,5.65,5.05,5.44"/>
	<path class="st2" d="M10.29,6.75v0.51L9.33,7.52c-0.2,0.06-0.36,0.27-0.36,0.47v0.15h2.18"/>
	<path class="st2" d="M11.32,6.77v0.5l1,0.26c0.2,0.06,0.32,0.27,0.32,0.48v0.15h-1.85"/>
	<path class="st2" d="M11.93,5.68c0,0.67-0.5,1.21-1.11,1.21c-0.61,0-1.11-0.54-1.11-1.21c0-0.67,0.5-1.21,1.11-1.21
		C11.43,4.48,11.93,5.02,11.93,5.68z"/>
	<path class="st2" d="M11.92,5.47C11.73,5.66,11.2,5.65,11,5.28c-0.37,0.37-0.97,0.37-1.27,0.16"/>
	<path class="st2" d="M7.83,11.39v0.52l-0.94,0.27c-0.2,0.06-0.36,0.27-0.36,0.47v0.18h2.03"/>
	<path class="st2" d="M8.94,11.39v0.52l0.94,0.27c0.2,0.06,0.36,0.27,0.36,0.47v0.18H8.2"/>
	<path class="st2" d="M9.49,10.34c0,0.67-0.5,1.21-1.11,1.21c-0.61,0-1.11-0.54-1.11-1.21c0-0.67,0.5-1.21,1.11-1.21
		C9,9.13,9.49,9.67,9.49,10.34z"/>
	<path class="st2" d="M9.48,10.12c-0.18,0.18-0.71,0.19-0.91-0.18C8.2,10.3,7.6,10.3,7.3,10.09"/>
	<line class="st2" x1="5.43" y1="8.76" x2="6.35" y2="9.69"/>
	<line class="st2" x1="11.34" y1="8.76" x2="10.42" y2="9.69"/>
</g>
</svg>
