<?xml version="1.0" encoding="utf-8"?>
<!-- Generator: Adobe Illustrator 23.0.1, SVG Export Plug-In . SVG Version: 6.00 Build 0)  -->
<svg version="1.1" id="Layer_1" xmlns="http://www.w3.org/2000/svg" xmlns:xlink="http://www.w3.org/1999/xlink" x="0px" y="0px"
	 viewBox="0 0 17 17" style="enable-background:new 0 0 17 17;" xml:space="preserve">
<style type="text/css">
	.st0{fill:#27AAE1;}
	.st1{fill:#FFFFFF;}
	.st2{font-family:'Helvetica';}
	.st3{font-size:5px;}
</style>
<path class="st0" d="M8.48,0.12c2.36,0,4.71,0,7.07,0c0.36,0,0.36,0,0.37,0.37c0,1.62,0,3.24,0,4.86c0,0.64-0.05,1.28-0.16,1.9
	c-0.09,0.53-0.19,1.06-0.34,1.57c-0.18,0.63-0.39,1.25-0.65,1.85c-0.21,0.51-0.49,0.98-0.76,1.47c-0.17,0.31-0.35,0.63-0.57,0.91
	c-0.32,0.41-0.67,0.8-1.03,1.19c-0.39,0.42-0.83,0.8-1.3,1.14c-0.48,0.35-0.98,0.66-1.51,0.92c-0.31,0.15-0.61,0.3-0.93,0.43
	c-0.1,0.04-0.24,0.05-0.33,0.01c-0.43-0.19-0.86-0.4-1.28-0.62c-1.07-0.59-2.02-1.33-2.83-2.25c-0.55-0.63-1.03-1.3-1.43-2.03
	c-0.25-0.45-0.47-0.9-0.65-1.37C1.96,10.02,1.79,9.56,1.63,9.1c-0.07-0.2-0.1-0.41-0.15-0.62C1.44,8.3,1.38,8.13,1.35,7.95
	c-0.11-0.66-0.21-1.33-0.3-1.99C1.02,5.76,1.03,5.56,1.03,5.37c0-1.64,0-3.28,0-4.92c0-0.05,0-0.11,0-0.16
	c0-0.11,0.06-0.16,0.16-0.16c0.09,0,0.18-0.01,0.27-0.01C3.8,0.12,6.14,0.12,8.48,0.12z"/>
<g>
	<path class="st1" d="M8.07,3.06h0.8l1.7,3.98H9.66L9.3,6.16H7.63L7.26,7.04H6.38L8.07,3.06z M8.99,5.39L8.46,4.1L7.94,5.39H8.99z"
		/>
</g>
<g>
	<text id="year" transform="matrix(1 0 0 1 5.4258 13.96)" class="st1 st2 st3">16</text>
</g>
<script type="text/javascript"><![CDATA[
function getUrlParameter(name) {
    name = name.replace(/[\[]/, '\\[').replace(/[\]]/, '\\]');
    var regex = new RegExp('[\\?&]' + name + '=([^&#]*)');
    var results = regex.exec(location.search);
    return results === null ? '' : decodeURIComponent(results[1].replace(/\+/g, ' '));
};
    var yearEl = document.getElementById('year');
	var year = getUrlParameter('year');

	if (yearEl && year) {
		yearEl.innerHTML = year;
	}

]]></script>
</svg>
