<?xml version="1.0" encoding="utf-8"?>
<!-- Generator: Adobe Illustrator 23.0.1, SVG Export Plug-In . SVG Version: 6.00 Build 0)  -->
<svg version="1.1" id="Layer_1" xmlns="http://www.w3.org/2000/svg" xmlns:xlink="http://www.w3.org/1999/xlink" x="0px" y="0px"
	 viewBox="0 0 17 17" style="enable-background:new 0 0 17 17;" xml:space="preserve">
<style type="text/css">
	.st0{fill:#FFFFFF;}
	.st1{font-family:'Helvetica';}
	.st2{font-size:5px;}
</style>
<g>
	<path class="st0" d="M8.44,16.48c-0.68-0.39-1.38-0.76-2.04-1.18c-0.51-0.32-0.98-0.69-1.44-1.06c-0.41-0.33-0.79-0.69-1.17-1.05
		c-0.46-0.43-0.84-0.91-1.18-1.4c-0.32-0.47-0.64-0.95-0.88-1.45C1.5,9.89,1.28,9.42,1.17,8.92C1.09,8.54,0.95,8.15,0.88,7.77
		C0.73,6.95,0.65,6.13,0.74,5.3c0.05-0.44,0.11-0.89,0.18-1.33c0.06-0.34,0.19-0.65,0.49-0.93c0.77-0.7,1.64-1.3,2.67-1.75
		c0.49-0.21,1-0.39,1.53-0.53c0.41-0.11,0.83-0.16,1.24-0.26C6.89,0.5,6.92,0.5,6.95,0.5c0.78-0.01,1.56-0.19,2.35-0.03
		c0.12,0.02,0.24,0.01,0.36,0.02c0.41,0.01,0.81,0.08,1.2,0.19c0.31,0.08,0.64,0.13,0.94,0.22c0.58,0.18,1.15,0.39,1.65,0.68
		c0.41,0.24,0.82,0.48,1.21,0.75c0.32,0.22,0.59,0.5,0.9,0.73c0.4,0.3,0.43,0.7,0.52,1.09c0.21,0.89,0.19,1.79,0.14,2.69
		c-0.02,0.42-0.11,0.83-0.19,1.25c-0.05,0.26-0.11,0.52-0.2,0.77c-0.14,0.41-0.3,0.81-0.48,1.21c-0.19,0.4-0.4,0.8-0.63,1.19
		c-0.36,0.61-0.81,1.18-1.32,1.72c-0.65,0.69-1.37,1.32-2.18,1.89c-0.79,0.56-1.64,1.04-2.51,1.5C8.65,16.4,8.56,16.43,8.44,16.48z"
		/>
	<path d="M8.4,16.94l-0.8-0.45c-0.48-0.27-0.97-0.54-1.43-0.84c-0.54-0.34-1.03-0.72-1.48-1.08c-0.42-0.34-0.8-0.7-1.2-1.07
		c-0.45-0.42-0.85-0.9-1.24-1.47c-0.3-0.44-0.64-0.95-0.91-1.5c-0.23-0.47-0.46-0.98-0.58-1.52C0.73,8.84,0.69,8.68,0.64,8.52
		C0.58,8.29,0.52,8.07,0.47,7.84C0.29,6.83,0.25,6.01,0.33,5.25C0.38,4.8,0.44,4.35,0.52,3.9C0.6,3.43,0.8,3.05,1.14,2.74
		c0.87-0.79,1.78-1.39,2.78-1.82c0.52-0.23,1.04-0.41,1.59-0.55c0.23-0.06,0.47-0.11,0.71-0.15c0.18-0.03,0.36-0.07,0.54-0.11
		C6.82,0.1,6.88,0.08,6.95,0.08c0.25,0,0.5-0.03,0.76-0.05c0.54-0.05,1.1-0.09,1.68,0.02C9.44,0.07,9.5,0.07,9.56,0.06l0.12,0
		c0.42,0.01,0.85,0.08,1.3,0.2c0.13,0.04,0.27,0.06,0.4,0.09c0.19,0.04,0.37,0.08,0.55,0.13c0.74,0.22,1.27,0.45,1.74,0.72
		l0.11,0.07c0.38,0.22,0.77,0.45,1.12,0.7c0.19,0.13,0.35,0.27,0.52,0.42c0.13,0.11,0.25,0.22,0.39,0.32
		c0.47,0.35,0.57,0.81,0.65,1.17l0.03,0.16c0.23,0.97,0.2,1.96,0.15,2.81c-0.02,0.38-0.09,0.74-0.16,1.1l-0.04,0.21
		c-0.06,0.33-0.13,0.59-0.21,0.84c-0.13,0.37-0.29,0.81-0.49,1.25c-0.19,0.4-0.41,0.82-0.65,1.23c-0.36,0.61-0.83,1.21-1.38,1.79
		c-0.68,0.71-1.43,1.37-2.24,1.94c-0.86,0.61-1.77,1.11-2.55,1.53c-0.07,0.04-0.15,0.07-0.24,0.1L8.4,16.94z M8.6,0.82
		c-0.27,0-0.54,0.02-0.82,0.05C7.51,0.89,7.23,0.91,6.96,0.91C6.77,0.96,6.58,0.99,6.38,1.03C6.16,1.07,5.94,1.11,5.73,1.17
		C5.22,1.3,4.74,1.47,4.25,1.68C3.33,2.08,2.49,2.62,1.7,3.35c-0.2,0.18-0.31,0.4-0.36,0.69C1.26,4.47,1.2,4.91,1.15,5.34
		C1.08,6.02,1.12,6.77,1.29,7.69c0.04,0.2,0.09,0.4,0.15,0.6c0.05,0.18,0.1,0.36,0.14,0.54c0.1,0.45,0.3,0.88,0.51,1.33
		c0.24,0.49,0.56,0.98,0.85,1.39c0.35,0.52,0.72,0.95,1.12,1.34c0.38,0.36,0.75,0.71,1.15,1.02c0.43,0.35,0.9,0.71,1.4,1.03
		c0.45,0.29,0.93,0.55,1.4,0.82l0.46,0.26c0.03-0.01,0.05-0.02,0.07-0.03c0.76-0.4,1.64-0.9,2.46-1.48
		c0.78-0.55,1.47-1.15,2.12-1.83c0.51-0.53,0.93-1.09,1.27-1.64c0.23-0.38,0.43-0.77,0.61-1.15c0.19-0.41,0.34-0.82,0.46-1.17
		c0.07-0.2,0.13-0.43,0.18-0.71l0.04-0.21c0.07-0.34,0.13-0.66,0.14-0.98c0.04-0.83,0.07-1.71-0.13-2.57l-0.04-0.17
		c-0.07-0.33-0.12-0.53-0.33-0.68c-0.15-0.11-0.29-0.23-0.43-0.35c-0.15-0.13-0.29-0.25-0.46-0.37C14.1,2.42,13.74,2.21,13.37,2
		l-0.11-0.07c-0.41-0.24-0.89-0.44-1.56-0.64c-0.16-0.05-0.32-0.08-0.48-0.12c-0.15-0.03-0.3-0.06-0.45-0.1
		c-0.39-0.11-0.75-0.16-1.11-0.17l-0.09,0c-0.12,0-0.23,0-0.33-0.02C9.02,0.83,8.81,0.82,8.6,0.82z"/>
</g>
<g>
	<path d="M4.58,3.9h0.82l1.74,4.09H6.21L5.84,7.08H4.13L3.76,7.99H2.85L4.58,3.9z M5.52,6.29L4.98,4.97L4.45,6.29H5.52z"/>
	<path d="M8.19,4.75H6.96V3.93h3.36v0.82H9.09v3.23H8.19V4.75z"/>
	<path d="M11.95,4.75h-1.23V3.93h3.36v0.82h-1.23v3.23h-0.89V4.75z"/>
</g>
<g>
	<text id="year" transform="matrix(1 0 0 1 5.5718 13.6035)" class="st1 st2">16</text>
</g>
<script type="text/javascript"><![CDATA[
function getUrlParameter(name) {
    name = name.replace(/[\[]/, '\\[').replace(/[\]]/, '\\]');
    var regex = new RegExp('[\\?&]' + name + '=([^&#]*)');
    var results = regex.exec(location.search);
    return results === null ? '' : decodeURIComponent(results[1].replace(/\+/g, ' '));
};
    var yearEl = document.getElementById('year');
	var year = getUrlParameter('year');

	if (yearEl && year) {
		yearEl.innerHTML = year;
	}

]]></script>
</svg>
