<?xml version="1.0" encoding="utf-8"?>
<!-- Generator: Adobe Illustrator 23.0.1, SVG Export Plug-In . SVG Version: 6.00 Build 0)  -->
<svg version="1.1" id="Layer_1" xmlns="http://www.w3.org/2000/svg" xmlns:xlink="http://www.w3.org/1999/xlink" x="0px" y="0px"
	 viewBox="0 0 17 17" style="enable-background:new 0 0 17 17;" xml:space="preserve">
<style type="text/css">
	.st0{fill:#1B75BC;}
	.st1{fill:#FFFFFF;}
	.st2{font-family:'Helvetica';}
	.st3{font-size:7px;}
</style>
<path class="st0" d="M8.6,17c-0.2-0.4-0.5-0.6-0.9-0.7c-0.6-0.2-1.1-0.4-1.7-0.6c-0.8-0.3-1.7-0.6-2.4-1c-0.8-0.4-1.4-1-1.8-1.8
	c-0.3-0.5-0.5-1.1-0.5-1.7c0-0.2-0.1-0.5-0.1-0.8c0-0.6,0.1-1.2,0.2-1.8c0-0.2,0.1-0.5,0.1-0.7c0-0.2,0.1-0.4,0.1-0.6
	C1.8,6.8,2,6.2,2.2,5.7c0-0.2,0.1-0.3,0.1-0.5c0.2-0.7,0-1.3-0.4-1.8C1.7,3,1.5,2.7,1.2,2.4c-0.1-0.1-0.1-0.2,0-0.3
	c0.3-0.3,0.6-0.6,0.9-0.9C2.6,0.9,3,0.5,3.4,0.1C3.5,0,3.6,0,3.8,0.1c0.4,0.4,1,0.7,1.5,0.9c0.2,0.1,0.4,0.1,0.7,0.1
	c0.2,0,0.5,0.1,0.8,0.1c0.6,0,1.2-0.2,1.7-0.5c0.2-0.1,0.3-0.1,0.5,0C9.3,1,9.7,1.1,10.2,1.2c0.1,0,0.1,0,0.2,0c0.2,0,0.4,0,0.6,0
	c0.1,0,0.2,0,0.2,0c0.4,0,0.8-0.1,1.1-0.3c0.4-0.2,0.8-0.4,1.1-0.7C13.7,0,13.8,0,14,0.2c0.3,0.3,0.7,0.6,1,0.9
	c0.3,0.3,0.7,0.6,1,0.9c0.2,0.2,0.2,0.2,0,0.4c-0.4,0.4-0.7,0.9-0.9,1.4c-0.1,0.4-0.2,0.8-0.1,1.2c0.1,0.4,0.2,0.9,0.4,1.4
	c0.1,0.3,0.2,0.6,0.3,0.9c0.1,0.2,0.1,0.5,0.2,0.7C15.9,8.4,15.9,8.7,16,9c0.1,1,0.2,1.9-0.1,2.9c-0.2,0.7-0.5,1.3-0.9,1.8
	c-0.5,0.5-1.1,0.9-1.7,1.2c-0.6,0.3-1.2,0.5-1.8,0.7c-0.3,0.1-0.6,0.2-1,0.3c-0.4,0.2-0.9,0.3-1.3,0.6c-0.1,0.1-0.2,0.2-0.4,0.4
	C8.7,16.9,8.7,16.9,8.6,17z"/>
<g>
	<path class="st1" d="M7,3.9h1.9C9.4,3.9,9.8,4,10,4.2c0.2,0.2,0.3,0.4,0.3,0.7v0c0,0.5-0.2,0.7-0.6,0.9c0.5,0.2,0.8,0.5,0.8,1v0
		C10.6,7.7,9.9,8,9,8H7V3.9z M9.4,5.1c0-0.3-0.2-0.4-0.6-0.4H7.9v0.9h0.8C9.1,5.6,9.4,5.4,9.4,5.1L9.4,5.1L9.4,5.1z M9,6.3H7.9v0.9
		H9c0.4,0,0.6-0.1,0.6-0.4v0C9.6,6.5,9.4,6.3,9,6.3z"/>
</g>
<g>
	<text id="year" transform="matrix(1 0 0 1 4.4318 13.9607)" class="st1 st2 st3">16</text>
</g>
<script  type="text/javascript">
	<![CDATA[
function getUrlParameter(name) {
    name = name.replace(/[\[]/, '\\[').replace(/[\]]/, '\\]');
    var regex = new RegExp('[\\?&]' + name + '=([^&#]*)');
    var results = regex.exec(location.search);
    return results === null ? '' : decodeURIComponent(results[1].replace(/\+/g, ' '));
};
    var yearEl = document.getElementById('year');
	var year = getUrlParameter('year');

	if (yearEl && year) {
		yearEl.innerHTML = year;
	}


		]]>
</script>
</svg>
