<?xml version="1.0" encoding="utf-8"?>
<!-- Generator: Adobe Illustrator 23.0.1, SVG Export Plug-In . SVG Version: 6.00 Build 0)  -->
<svg version="1.1" id="Layer_1" xmlns="http://www.w3.org/2000/svg" xmlns:xlink="http://www.w3.org/1999/xlink" x="0px" y="0px"
	 viewBox="0 0 17 17" style="enable-background:new 0 0 17 17;" xml:space="preserve">
<style type="text/css">
	.st0{fill:#8DC63F;}
	.st1{fill:#FFFFFF;}
	.st2{font-family:'Helvetica';}
	.st3{font-size:5px;}
</style>
<path class="st0" d="M16.57,4.69L12.21,0.4c-0.18-0.18-0.43-0.28-0.69-0.28l-6.2,0c-0.26,0-0.52,0.11-0.7,0.3l-4.23,4.3
	C0.19,4.9,0.09,5.14,0.09,5.4v6.1c0,0.26,0.1,0.5,0.28,0.69l4.31,4.45c0.19,0.19,0.44,0.3,0.71,0.3l6.21,0
	c0.27,0,0.53-0.11,0.71-0.31l4.27-4.48c0.18-0.18,0.27-0.43,0.27-0.68l0-6.08C16.86,5.13,16.76,4.88,16.57,4.69z"/>
<g>
	<path class="st1" d="M4.65,6.69V6.68c0-1.2,0.9-2.18,2.2-2.18c0.79,0,1.27,0.27,1.66,0.65L7.92,5.83C7.59,5.54,7.26,5.36,6.84,5.36
		c-0.71,0-1.22,0.59-1.22,1.31v0.01c0,0.72,0.5,1.32,1.22,1.32c0.48,0,0.78-0.19,1.11-0.49l0.59,0.6C8.11,8.57,7.62,8.86,6.81,8.86
		C5.57,8.86,4.65,7.9,4.65,6.69z"/>
	<path class="st1" d="M8.99,8.17l0.55-0.66c0.38,0.31,0.78,0.51,1.26,0.51c0.38,0,0.61-0.15,0.61-0.4V7.62
		c0-0.23-0.14-0.36-0.85-0.54c-0.85-0.22-1.4-0.45-1.4-1.29V5.78c0-0.76,0.61-1.27,1.47-1.27c0.61,0,1.14,0.19,1.57,0.54l-0.48,0.7
		c-0.37-0.26-0.74-0.42-1.1-0.42c-0.36,0-0.54,0.16-0.54,0.37v0.01c0,0.28,0.18,0.37,0.91,0.55c0.85,0.22,1.34,0.53,1.34,1.26v0.01
		c0,0.84-0.64,1.31-1.55,1.31C10.14,8.85,9.49,8.63,8.99,8.17z"/>
</g>
<g>
	<text id="year" transform="matrix(1 0 0 1 5.4614 14.5781)" class="st1 st2 st3">16</text>
</g>
<script type="text/javascript"><![CDATA[
function getUrlParameter(name) {
    name = name.replace(/[\[]/, '\\[').replace(/[\]]/, '\\]');
    var regex = new RegExp('[\\?&]' + name + '=([^&#]*)');
    var results = regex.exec(location.search);
    return results === null ? '' : decodeURIComponent(results[1].replace(/\+/g, ' '));
};
    var yearEl = document.getElementById('year');
	var year = getUrlParameter('year');

	if (yearEl && year) {
		yearEl.innerHTML = year;
	}

]]></script>
</svg>
