<?xml version="1.0" encoding="utf-8"?>
<!-- Generator: Adobe Illustrator 23.0.1, SVG Export Plug-In . SVG Version: 6.00 Build 0)  -->
<svg version="1.1" id="Layer_1" xmlns="http://www.w3.org/2000/svg" xmlns:xlink="http://www.w3.org/1999/xlink" x="0px" y="0px"
	 viewBox="0 0 17 17" style="enable-background:new 0 0 17 17;" xml:space="preserve">
<style type="text/css">
	.st0{fill:#8DC63F;}
	.st1{fill:#FFFFFF;}
</style>
<g>
	<path class="st0" d="M7.78,16.1L0.85,9.18c-0.4-0.4-0.4-1.04,0-1.44l6.92-6.92c0.4-0.4,1.04-0.4,1.44,0l6.92,6.92
		c0.4,0.4,0.4,1.04,0,1.44L9.21,16.1C8.82,16.5,8.17,16.5,7.78,16.1z"/>
	<path class="st0" d="M8.49,16.88c-0.3,0-0.58-0.12-0.79-0.33L0.4,9.25C0.19,9.04,0.08,8.76,0.08,8.46c0-0.3,0.12-0.58,0.33-0.79
		l7.31-7.31c0.42-0.42,1.15-0.42,1.57,0l7.31,7.31c0.21,0.21,0.33,0.49,0.33,0.79c0,0.3-0.12,0.58-0.33,0.79l-7.31,7.31
		C9.07,16.76,8.79,16.88,8.49,16.88z M8.49,0.78c-0.1,0-0.2,0.04-0.27,0.11L0.92,8.19C0.85,8.27,0.81,8.36,0.81,8.46
		s0.04,0.2,0.11,0.27l7.31,7.31c0.14,0.14,0.39,0.14,0.53,0l7.31-7.31c0.07-0.07,0.11-0.17,0.11-0.27s-0.04-0.2-0.11-0.27L8.76,0.89
		C8.69,0.82,8.59,0.78,8.49,0.78z"/>
</g>
<g>
	<g>
		<path class="st1" d="M6.67,5.88h3.99v1.05H7.82v1.12h2.5V9.1h-2.5v2.03H6.67V5.88z"/>
	</g>
</g>
</svg>
