<?xml version="1.0" encoding="utf-8"?>
<!-- Generator: Adobe Illustrator 23.0.1, SVG Export Plug-In . SVG Version: 6.00 Build 0)  -->
<svg version="1.1" id="Layer_1" xmlns="http://www.w3.org/2000/svg" xmlns:xlink="http://www.w3.org/1999/xlink" x="0px" y="0px"
	 viewBox="0 0 17 17" style="enable-background:new 0 0 17 17;" xml:space="preserve">
<style type="text/css">
	.st0{fill:#8DC63F;}
	.st1{fill:#FFFFFF;}
	.st2{font-family:'Helvetica';}
	.st3{font-size:5px;}
</style>
<circle class="st0" cx="8.53" cy="8.51" r="8.47"/>
<g>
	<path class="st1" d="M5.37,5.07h3.11v0.82H6.26v0.87h1.95v0.82H6.26v1.58h-0.9V5.07z"/>
	<path class="st1" d="M9.19,5.07h1.67c0.97,0,1.56,0.58,1.56,1.41v0.01c0,0.94-0.73,1.43-1.65,1.43h-0.68v1.22h-0.9V5.07z
		 M10.79,7.13c0.45,0,0.71-0.27,0.71-0.62V6.5c0-0.4-0.28-0.62-0.73-0.62h-0.69v1.25H10.79z"/>
</g>
<g>
	<text id="year" transform="matrix(1 0 0 1 5.4707 14.4414)" class="st1 st2 st3">16</text>
</g>
<script type="text/javascript"><![CDATA[
function getUrlParameter(name) {
    name = name.replace(/[\[]/, '\\[').replace(/[\]]/, '\\]');
    var regex = new RegExp('[\\?&]' + name + '=([^&#]*)');
    var results = regex.exec(location.search);
    return results === null ? '' : decodeURIComponent(results[1].replace(/\+/g, ' '));
};
    var yearEl = document.getElementById('year');
	var year = getUrlParameter('year');

	if (yearEl && year) {
		yearEl.innerHTML = year;
	}

]]></script>
</svg>
