<?xml version="1.0" encoding="utf-8"?>
<!-- Generator: Adobe Illustrator 23.0.1, SVG Export Plug-In . SVG Version: 6.00 Build 0)  -->
<svg version="1.1" id="Layer_1" xmlns="http://www.w3.org/2000/svg" xmlns:xlink="http://www.w3.org/1999/xlink" x="0px" y="0px"
	 viewBox="0 0 17 17" style="enable-background:new 0 0 17 17;" xml:space="preserve">
<style type="text/css">
	.st0{fill:#ED1C24;}
	.st1{fill:#FFFFFF;}
	.st2{font-family:'Helvetica';}
	.st3{font-size:5px;}
</style>
<g id="XMLID_1_">
	<g>
		<path d="M15.16,2.58c0.04,0.18,0.08,0.37,0.12,0.55c0.03,0.21,0.07,0.42,0.1,0.62c0.14,0.93,0.18,1.86,0.16,2.8
			c-0.01,0.54-0.09,1.09-0.17,1.62c-0.1,0.69-0.28,1.37-0.52,2.02c-0.27,0.73-0.62,1.42-1.04,2.09c-0.63,0.98-1.38,1.84-2.28,2.59
			c-0.74,0.62-1.53,1.17-2.38,1.62c-0.25,0.14-0.5,0.27-0.75,0.42c-1.07-0.52-2.06-1.12-2.97-1.86c-0.5-0.41-0.98-0.84-1.39-1.32
			c-0.16-0.18-0.32-0.38-0.46-0.57L14.94,1.81c0.01,0.03,0.02,0.06,0.02,0.08C15.04,2.12,15.1,2.35,15.16,2.58z"/>
		<path class="st0" d="M14.94,1.81L3.58,13.16c-0.38-0.47-0.7-0.97-0.99-1.49c-0.27-0.5-0.5-1.03-0.7-1.57
			C1.75,9.66,1.63,9.2,1.52,8.74c-0.13-0.56-0.2-1.12-0.26-1.69C1.2,6.36,1.2,5.67,1.27,4.97c0.04-0.41,0.07-0.82,0.14-1.24
			C1.47,3.39,1.55,3.05,1.62,2.7c0.07-0.31,0.17-0.62,0.24-0.93C1.91,1.55,2,1.38,2.26,1.3c0.46-0.15,0.91-0.36,1.38-0.52
			c0.3-0.1,0.62-0.18,0.94-0.25C4.93,0.46,5.3,0.4,5.65,0.31c0.5-0.12,1.02-0.16,1.54-0.22C7.7,0.03,8.22,0.01,8.73,0.03
			c0.56,0.03,1.12,0.1,1.68,0.16c0.06,0.01,0.1,0.02,0.15,0.02c0.37,0.01,0.71,0.11,1.06,0.2c0.18,0.05,0.38,0.07,0.58,0.12
			c0.31,0.08,0.63,0.15,0.94,0.25c0.37,0.12,0.73,0.26,1.1,0.39c0.14,0.06,0.26,0.12,0.4,0.17C14.87,1.42,14.9,1.63,14.94,1.81z"/>
	</g>
	<g>
	</g>
</g>
<g>
	<path class="st1" d="M2.74,4.89V4.88c0-1.11,0.87-2.03,2.06-2.03c0.71,0,1.13,0.19,1.54,0.54L5.8,4.05c-0.3-0.25-0.57-0.4-1.03-0.4
		c-0.63,0-1.13,0.55-1.13,1.22v0.01c0,0.72,0.49,1.24,1.19,1.24c0.31,0,0.59-0.08,0.81-0.24V5.33H4.78V4.59h1.7v1.7
		C6.08,6.63,5.52,6.91,4.8,6.91C3.58,6.91,2.74,6.05,2.74,4.89z"/>
	<path class="st1" d="M7.31,2.92h0.86v1.55h1.59V2.92h0.86v3.92H9.76V5.27H8.17v1.57H7.31V2.92z"/>
	<path class="st1" d="M11.29,6.27l0.51-0.61c0.35,0.29,0.72,0.48,1.17,0.48c0.35,0,0.57-0.14,0.57-0.37V5.76
		c0-0.22-0.13-0.33-0.79-0.5c-0.79-0.2-1.3-0.42-1.3-1.2V4.05c0-0.71,0.57-1.18,1.37-1.18c0.57,0,1.06,0.18,1.46,0.5l-0.45,0.65
		c-0.35-0.24-0.69-0.39-1.02-0.39c-0.33,0-0.5,0.15-0.5,0.34v0.01c0,0.26,0.17,0.34,0.85,0.52c0.8,0.21,1.24,0.49,1.24,1.18v0.01
		c0,0.78-0.59,1.22-1.44,1.22C12.36,6.9,11.76,6.69,11.29,6.27z"/>
</g>
<g>
	<text id="year" transform="matrix(1 0 0 1 5.515 14.0285)" class="st1 st2 st3">16</text>
</g>
<script type="text/javascript"><![CDATA[
function getUrlParameter(name) {
    name = name.replace(/[\[]/, '\\[').replace(/[\]]/, '\\]');
    var regex = new RegExp('[\\?&]' + name + '=([^&#]*)');
    var results = regex.exec(location.search);
    return results === null ? '' : decodeURIComponent(results[1].replace(/\+/g, ' '));
};
    var yearEl = document.getElementById('year');
	var year = getUrlParameter('year');

	if (yearEl && year) {
		yearEl.innerHTML = year;
	}

]]></script>
</svg>
