<?xml version="1.0" encoding="utf-8"?>
<!-- Generator: Adobe Illustrator 23.0.1, SVG Export Plug-In . SVG Version: 6.00 Build 0)  -->
<svg version="1.1" id="Layer_1" xmlns="http://www.w3.org/2000/svg" xmlns:xlink="http://www.w3.org/1999/xlink" x="0px" y="0px"
	 viewBox="0 0 17 17" style="enable-background:new 0 0 17 17;" xml:space="preserve">
<style type="text/css">
	.st0{fill:#27AAE1;}
	.st1{fill:#FFFFFF;}
	.st2{font-family:'Helvetica';}
	.st3{font-size:5px;}
</style>
<path class="st0" d="M8.57,0.18c0.09,0.08,0.2,0.16,0.3,0.26c1.05,1.04,2.34,1.41,3.78,1.34c0.73-0.04,1.44-0.15,2.13-0.37
	c0.2-0.06,0.39-0.12,0.59-0.18c0.2-0.05,0.34,0.05,0.35,0.25c0.01,0.24,0.02,0.48,0.02,0.72c0,2.76,0,5.52,0,8.28
	c0,0.07,0,0.14,0,0.21c0.06,1.06-0.33,1.95-0.96,2.77c-0.45,0.58-0.99,1.05-1.59,1.46c-1.15,0.79-2.43,1.3-3.76,1.69
	c-0.23,0.07-0.46,0.14-0.7,0.18c-0.13,0.03-0.28,0.03-0.41,0c-1.69-0.42-3.3-1.01-4.72-2.04c-0.42-0.31-0.8-0.65-1.15-1.04
	c-0.78-0.89-1.21-1.9-1.2-3.11c0.02-2.28,0-4.55,0-6.83c0-0.69,0-1.38,0.01-2.07c0-0.13,0.04-0.27,0.08-0.4
	C1.37,1.26,1.46,1.19,1.5,1.2c0.2,0.04,0.4,0.09,0.6,0.15C2.83,1.6,3.57,1.73,4.33,1.78c0.59,0.04,1.18-0.01,1.75-0.15
	c0.75-0.19,1.41-0.56,1.97-1.09C8.2,0.4,8.31,0.21,8.57,0.18z"/>
<g>
	<path class="st1" d="M1.87,4.43h0.99l1.1,1.77l1.1-1.77h0.99v4.17H5.14V5.88L3.96,7.66H3.94L2.77,5.9v2.71h-0.9V4.43z"/>
	<path class="st1" d="M6.03,6.53V6.52c0-1.19,0.94-2.16,2.22-2.16c1.29,0,2.21,0.96,2.21,2.15v0.01c0,1.19-0.94,2.16-2.22,2.16
		C6.95,8.68,6.03,7.72,6.03,6.53z M9.5,6.53V6.52c0-0.72-0.53-1.31-1.26-1.31c-0.74,0-1.25,0.58-1.25,1.3v0.01
		c0,0.72,0.52,1.31,1.26,1.31C8.99,7.83,9.5,7.25,9.5,6.53z"/>
	<path class="st1" d="M10.44,4.43h0.85L13.25,7V4.43h0.91v4.17h-0.78l-2.02-2.65v2.65h-0.91V4.43z"/>
	<path class="st1" d="M14.36,4.43h0.92v4.17h-0.92V4.43z"/>
</g>
<g>
	<text id="year" transform="matrix(1 0 0 1 5.6146 14.3204)" class="st1 st2 st3">16</text>
</g>
<script type="text/javascript"><![CDATA[
function getUrlParameter(name) {
    name = name.replace(/[\[]/, '\\[').replace(/[\]]/, '\\]');
    var regex = new RegExp('[\\?&]' + name + '=([^&#]*)');
    var results = regex.exec(location.search);
    return results === null ? '' : decodeURIComponent(results[1].replace(/\+/g, ' '));
};
    var yearEl = document.getElementById('year');
	var year = getUrlParameter('year');

	if (yearEl && year) {
		yearEl.innerHTML = year;
	}

]]></script>
</svg>
