<?xml version="1.0" encoding="utf-8"?>
<!-- Generator: Adobe Illustrator 23.0.0, SVG Export Plug-In . SVG Version: 6.00 Build 0)  -->
<svg version="1.1" id="Layer_1" xmlns="http://www.w3.org/2000/svg" xmlns:xlink="http://www.w3.org/1999/xlink" x="0px" y="0px"
	 viewBox="0 0 200 200" style="enable-background:new 0 0 200 200;" xml:space="preserve">
<style type="text/css">
	.st0{fill:#27AAE1;}
	.st1{fill:#FFFFFF;}
	.st2{font-family:'Gotham-Bold';}
	.st3{font-size:93.6642px;}
	.st4{font-family:'Gotham-Book';}
	.st5{font-size:66.903px;}
</style>
<path class="st0" d="M101.02,0.67c1.07,0.92,2.38,1.91,3.54,3.06c12.54,12.39,27.9,16.84,45.12,16.01
	c8.66-0.42,17.18-1.78,25.46-4.44c2.35-0.75,4.7-1.49,7.08-2.14c2.37-0.65,4.05,0.57,4.15,3.02c0.12,2.88,0.21,5.76,0.21,8.63
	c0.01,32.93,0.01,65.86,0.01,98.79c0,0.82-0.05,1.65,0,2.47c0.77,12.62-3.98,23.32-11.51,33.04c-5.35,6.9-11.86,12.54-19.02,17.47
	c-13.72,9.45-28.96,15.52-44.82,20.2c-2.76,0.82-5.53,1.65-8.35,2.2c-1.57,0.31-3.34,0.39-4.88,0.01
	c-20.11-4.98-39.34-12.04-56.26-24.37c-5-3.65-9.6-7.76-13.71-12.41c-9.36-10.58-14.45-22.69-14.34-37.06
	c0.22-27.17,0.05-54.33,0.05-81.5c0-8.23-0.02-16.47,0.09-24.7c0.02-1.59,0.46-3.23,1-4.74c0.22-0.61,1.3-1.43,1.85-1.33
	c2.42,0.44,4.83,1.03,7.15,1.83c8.63,2.96,17.51,4.48,26.59,5.03c7.05,0.43,14.04-0.1,20.83-1.84c8.9-2.28,16.8-6.63,23.53-12.98
	C96.59,3.27,97.98,1.05,101.02,0.67z"/>
<g>
	<text transform="matrix(1 0 0 1 60.1231 92.5654)" class="st1 st2 st3">M</text>
	<text transform="matrix(1 0 0 1 66.0362 173.2623)" class="st1 st4 st5">16</text>
</g>
</svg>
