<?xml version="1.0" encoding="utf-8"?>
<!-- Generator: Adobe Illustrator 23.0.1, SVG Export Plug-In . SVG Version: 6.00 Build 0)  -->
<svg version="1.1" id="Layer_1" xmlns="http://www.w3.org/2000/svg" xmlns:xlink="http://www.w3.org/1999/xlink" x="0px" y="0px"
	 viewBox="0 0 17 17" style="enable-background:new 0 0 17 17;" xml:space="preserve">
<style type="text/css">
	.st0{fill:#1B75BC;}
	.st1{fill:#FFFFFF;}
	.st2{font-family:'Helvetica';}
	.st3{font-size:5px;}
</style>
<path class="st0" d="M16.76,7.95L9.05,0.24c-0.31-0.31-0.8-0.31-1.11,0L0.23,7.95c-0.31,0.31-0.31,0.8,0,1.11l7.71,7.71
	c0.31,0.31,0.8,0.31,1.11,0l7.71-7.71C17.06,8.76,17.06,8.26,16.76,7.95z"/>
<g>
	<path class="st1" d="M5.08,4.99h0.77l1.78,2.33V4.99h0.82v3.79H7.74L5.9,6.37v2.41H5.08V4.99z"/>
	<path class="st1" d="M9.09,8.23l0.49-0.59c0.34,0.28,0.7,0.46,1.13,0.46c0.34,0,0.55-0.14,0.55-0.36V7.73
		c0-0.21-0.13-0.32-0.76-0.48c-0.76-0.2-1.26-0.41-1.26-1.16V6.08c0-0.69,0.55-1.14,1.33-1.14c0.55,0,1.02,0.17,1.41,0.48
		l-0.43,0.63c-0.34-0.23-0.67-0.37-0.99-0.37c-0.32,0-0.49,0.15-0.49,0.33v0.01c0,0.25,0.16,0.33,0.82,0.5
		c0.77,0.2,1.2,0.48,1.2,1.14v0.01c0,0.75-0.57,1.17-1.39,1.17C10.13,8.83,9.55,8.63,9.09,8.23z"/>
</g>
<g>
	<text id="year" transform="matrix(1 0 0 1 5.458 14.1064)" class="st1 st2 st3">16</text>
</g>
<script type="text/javascript"><![CDATA[
function getUrlParameter(name) {
    name = name.replace(/[\[]/, '\\[').replace(/[\]]/, '\\]');
    var regex = new RegExp('[\\?&]' + name + '=([^&#]*)');
    var results = regex.exec(location.search);
    return results === null ? '' : decodeURIComponent(results[1].replace(/\+/g, ' '));
};
    var yearEl = document.getElementById('year');
	var year = getUrlParameter('year');

	if (yearEl && year) {
		yearEl.innerHTML = year;
	}

]]></script>
</svg>
