<?xml version="1.0" encoding="utf-8"?>
<!-- Generator: Adobe Illustrator 23.0.1, SVG Export Plug-In . SVG Version: 6.00 Build 0)  -->
<svg version="1.1" id="Layer_1" xmlns="http://www.w3.org/2000/svg" xmlns:xlink="http://www.w3.org/1999/xlink" x="0px" y="0px"
	 viewBox="0 0 17 17" style="enable-background:new 0 0 17 17;" xml:space="preserve">
<style type="text/css">
	.st0{fill:#FFFFFF;}
	.st1{font-family:'Helvetica';}
	.st2{font-size:5px;}
</style>
<g>
	<path d="M7.81,16.22L0.83,9.24c-0.4-0.4-0.4-1.04,0-1.44l6.98-6.98c0.4-0.4,1.04-0.4,1.44,0l6.98,6.98c0.4,0.4,0.4,1.04,0,1.44
		l-6.98,6.98C8.85,16.62,8.21,16.62,7.81,16.22z"/>
	<path d="M8.53,17c-0.3,0-0.58-0.12-0.79-0.33L0.38,9.31C0.17,9.1,0.05,8.82,0.05,8.52c0-0.3,0.12-0.58,0.33-0.79l7.36-7.36
		c0.42-0.42,1.16-0.42,1.58,0l7.36,7.36c0.21,0.21,0.33,0.49,0.33,0.79c0,0.3-0.12,0.58-0.33,0.79l-7.36,7.36
		C9.11,16.88,8.83,17,8.53,17z M8.53,0.78c-0.1,0-0.2,0.04-0.27,0.11L0.9,8.25C0.83,8.33,0.79,8.42,0.79,8.52s0.04,0.2,0.11,0.27
		l7.36,7.36c0.14,0.14,0.39,0.14,0.54,0l7.36-7.36c0.07-0.07,0.11-0.17,0.11-0.27s-0.04-0.2-0.11-0.27L8.8,0.9
		C8.73,0.82,8.63,0.78,8.53,0.78z"/>
</g>
<g>
	<path class="st0" d="M7.24,5.16h1.48c0.86,0,1.39,0.51,1.39,1.25v0.01c0,0.84-0.65,1.27-1.46,1.27h-0.6v1.09h-0.8V5.16z M8.66,6.99
		c0.4,0,0.63-0.24,0.63-0.55V6.43c0-0.36-0.25-0.55-0.65-0.55H8.03v1.11H8.66z"/>
</g>
<g>
	<text id="year" transform="matrix(1 0 0 1 5.5054 13.8691)" class="st0 st1 st2">16</text>
</g>
<script type="text/javascript"><![CDATA[
function getUrlParameter(name) {
    name = name.replace(/[\[]/, '\\[').replace(/[\]]/, '\\]');
    var regex = new RegExp('[\\?&]' + name + '=([^&#]*)');
    var results = regex.exec(location.search);
    return results === null ? '' : decodeURIComponent(results[1].replace(/\+/g, ' '));
};
    var yearEl = document.getElementById('year');
	var year = getUrlParameter('year');

	if (yearEl && year) {
		yearEl.innerHTML = year;
	}

]]></script>
</svg>
