<?xml version="1.0" encoding="utf-8"?>
<!-- Generator: Adobe Illustrator 23.0.1, SVG Export Plug-In . SVG Version: 6.00 Build 0)  -->
<svg version="1.1" id="Layer_1" xmlns="http://www.w3.org/2000/svg" xmlns:xlink="http://www.w3.org/1999/xlink" x="0px" y="0px"
	 viewBox="0 0 17 17" style="enable-background:new 0 0 17 17;" xml:space="preserve">
<style type="text/css">
	.st0{fill:#FFFFFF;}
	.st1{font-family:'Helvetica';}
	.st2{font-size:5px;}
</style>
<g>
	<path class="st0" d="M16.3,4.8l-4.19-4.12c-0.18-0.17-0.42-0.27-0.66-0.27l-5.96,0c-0.25,0-0.5,0.1-0.68,0.28L0.76,4.82
		C0.59,5,0.49,5.24,0.49,5.49v5.86c0,0.25,0.1,0.48,0.27,0.66l4.13,4.27c0.18,0.18,0.42,0.29,0.68,0.29l5.96,0
		c0.26,0,0.51-0.11,0.69-0.29l4.1-4.3c0.17-0.18,0.26-0.41,0.26-0.65l0-5.83C16.59,5.23,16.49,4.98,16.3,4.8z"/>
	<path d="M11.53,16.98l-5.96,0c-0.37,0-0.72-0.15-0.98-0.41l-4.13-4.27c-0.25-0.26-0.38-0.59-0.38-0.95V5.49
		c0-0.36,0.14-0.7,0.39-0.95l4.06-4.13C4.78,0.15,5.13,0,5.5,0c0,0,0,0,0,0l5.95,0c0.36,0,0.7,0.14,0.95,0.39l4.19,4.12
		C16.85,4.76,17,5.12,17,5.48l0,5.83c0,0.35-0.13,0.68-0.38,0.94l-4.1,4.3C12.26,16.82,11.91,16.98,11.53,16.98z M5.5,0.83
		c-0.14,0-0.28,0.06-0.38,0.16L1.05,5.11C0.96,5.21,0.9,5.35,0.9,5.49v5.86c0,0.14,0.05,0.27,0.15,0.37l4.13,4.27
		c0.1,0.1,0.24,0.16,0.38,0.16l5.96,0c0.15,0,0.29-0.06,0.39-0.17l4.1-4.3c0.1-0.1,0.15-0.23,0.15-0.37l0-5.83
		c0-0.14-0.06-0.28-0.16-0.38v0l-4.19-4.12c-0.1-0.1-0.23-0.15-0.38-0.15L5.5,0.83C5.5,0.83,5.5,0.83,5.5,0.83z"/>
</g>
<g>
	<path d="M5.08,8.14L5.6,7.51C5.97,7.81,6.35,8,6.81,8C7.18,8,7.4,7.86,7.4,7.62V7.61c0-0.23-0.14-0.34-0.81-0.51
		C5.77,6.88,5.24,6.66,5.24,5.86V5.84c0-0.73,0.59-1.22,1.42-1.22c0.59,0,1.09,0.18,1.5,0.51L7.7,5.81c-0.36-0.25-0.71-0.4-1.05-0.4
		c-0.34,0-0.52,0.16-0.52,0.35v0.01C6.13,6.04,6.3,6.13,7,6.31c0.82,0.21,1.28,0.51,1.28,1.21v0.01c0,0.8-0.61,1.25-1.49,1.25
		C6.18,8.79,5.56,8.57,5.08,8.14z"/>
	<path d="M8.72,8.14l0.53-0.63C9.61,7.81,9.99,8,10.45,8c0.36,0,0.58-0.14,0.58-0.38V7.61c0-0.23-0.14-0.34-0.81-0.51
		C9.41,6.88,8.88,6.66,8.88,5.86V5.84c0-0.73,0.59-1.22,1.42-1.22c0.59,0,1.09,0.18,1.5,0.51l-0.46,0.67
		c-0.36-0.25-0.71-0.4-1.05-0.4c-0.34,0-0.52,0.16-0.52,0.35v0.01c0,0.27,0.17,0.35,0.87,0.53c0.82,0.21,1.28,0.51,1.28,1.21v0.01
		c0,0.8-0.61,1.25-1.49,1.25C9.82,8.79,9.2,8.57,8.72,8.14z"/>
</g>
<text id="year" transform="matrix(1 0 0 1 5.4849 14.458)" class="st1 st2">16</text>
<script type="text/javascript"><![CDATA[
function getUrlParameter(name) {
    name = name.replace(/[\[]/, '\\[').replace(/[\]]/, '\\]');
    var regex = new RegExp('[\\?&]' + name + '=([^&#]*)');
    var results = regex.exec(location.search);
    return results === null ? '' : decodeURIComponent(results[1].replace(/\+/g, ' '));
};
    var yearEl = document.getElementById('year');
	var year = getUrlParameter('year');

	if (yearEl && year) {
		yearEl.innerHTML = year;
	}

]]></script>
</svg>
