<?xml version="1.0" encoding="utf-8"?>
<!-- Generator: Adobe Illustrator 23.0.0, SVG Export Plug-In . SVG Version: 6.00 Build 0)  -->
<svg version="1.1" id="Layer_1" xmlns="http://www.w3.org/2000/svg" xmlns:xlink="http://www.w3.org/1999/xlink" x="0px" y="0px"
	 viewBox="0 0 200 200" style="enable-background:new 0 0 200 200;" xml:space="preserve">
<style type="text/css">
	.st0{fill:#FFFFFF;stroke:#231F20;stroke-width:7;stroke-miterlimit:10;}
	.st1{fill:#231F20;}
	.st2{font-family:'Gotham-Bold';}
	.st3{font-size:72.3379px;}
	.st4{font-family:'Gotham-Book';}
	.st5{font-size:66.903px;}
</style>
<path class="st0" d="M192.7,56l-50-49.2c-2.1-2.1-5-3.2-7.9-3.2l-71.1,0c-3,0-6,1.2-8.1,3.4L7.1,56.2c-2.1,2.1-3.2,5-3.2,7.9v70
	c0,2.9,1.1,5.8,3.2,7.9l49.4,51c2.1,2.2,5.1,3.4,8.1,3.4l71.2,0c3.1,0,6.1-1.3,8.2-3.5l49-51.4c2-2.1,3.1-4.9,3.1-7.8l0-69.7
	C196.1,61,194.9,58.1,192.7,56z"/>
<g>
	<text transform="matrix(1 0 0 1 73.2598 92.0181)" class="st1 st2 st3">S</text>
	<text transform="matrix(1 0 0 1 66.0362 153.2716)" class="st1 st4 st5">16</text>
</g>
</svg>
