<?xml version="1.0" encoding="utf-8"?>
<!-- Generator: Adobe Illustrator 23.0.1, SVG Export Plug-In . SVG Version: 6.00 Build 0)  -->
<svg version="1.1" id="Layer_1" xmlns="http://www.w3.org/2000/svg" xmlns:xlink="http://www.w3.org/1999/xlink" x="0px" y="0px"
	 viewBox="0 0 17 17" style="enable-background:new 0 0 17 17;" xml:space="preserve">
<style type="text/css">
	.st0{fill:#FFFFFF;}
	.st1{font-family:'Helvetica';}
	.st2{font-size:5px;}
	.st3{fill:#EF4136;}
	.st4{font-size:4.2515px;}
</style>
<g>
	<path class="st0" d="M1.87,4.43h0.99l1.1,1.77l1.1-1.77h0.99v4.17H5.14V5.88L3.96,7.66H3.94L2.77,5.9v2.71h-0.9V4.43z"/>
	<path class="st0" d="M6.03,6.53V6.52c0-1.19,0.94-2.16,2.22-2.16c1.29,0,2.21,0.96,2.21,2.15v0.01c0,1.19-0.94,2.16-2.22,2.16
		C6.95,8.68,6.03,7.72,6.03,6.53z M9.5,6.53V6.52c0-0.72-0.53-1.31-1.26-1.31c-0.74,0-1.25,0.58-1.25,1.3v0.01
		c0,0.72,0.52,1.31,1.26,1.31C8.99,7.83,9.5,7.25,9.5,6.53z"/>
	<path class="st0" d="M10.44,4.43h0.85L13.25,7V4.43h0.91v4.17h-0.78l-2.02-2.65v2.65h-0.91V4.43z"/>
	<path class="st0" d="M14.36,4.43h0.92v4.17h-0.92V4.43z"/>
</g>
<g>
	<text transform="matrix(1 0 0 1 5.6146 14.3204)" class="st0 st1 st2">16</text>
</g>
<path class="st3" d="M16.48,14H0.74c-0.35,0-0.63-0.28-0.63-0.63V3.27c0-0.35,0.28-0.63,0.63-0.63h15.74c0.35,0,0.63,0.28,0.63,0.63
	v10.1C17.11,13.71,16.82,14,16.48,14z"/>
<g>
	<path class="st0" d="M4.57,7.85L5.11,7.2C5.48,7.51,5.88,7.7,6.35,7.7c0.37,0,0.6-0.15,0.6-0.39V7.3c0-0.23-0.14-0.35-0.84-0.53
		C5.28,6.55,4.73,6.32,4.73,5.49V5.48c0-0.76,0.61-1.26,1.46-1.26c0.61,0,1.13,0.19,1.55,0.53L7.26,5.44
		C6.9,5.19,6.53,5.03,6.18,5.03c-0.35,0-0.54,0.16-0.54,0.36v0.01c0,0.27,0.18,0.36,0.9,0.55c0.85,0.22,1.32,0.52,1.32,1.25v0.01
		c0,0.83-0.63,1.29-1.53,1.29C5.7,8.51,5.07,8.29,4.57,7.85z"/>
	<path class="st0" d="M8.66,4.28h0.85l1.95,2.57V4.28h0.91v4.17h-0.78L9.57,5.8v2.65H8.66V4.28z"/>
</g>
<g>
	<text id="year" transform="matrix(1 0 0 1 5.9639 12.8193)" class="st0 st1 st4">16</text>
</g>
<script type="text/javascript"><![CDATA[
function getUrlParameter(name) {
    name = name.replace(/[\[]/, '\\[').replace(/[\]]/, '\\]');
    var regex = new RegExp('[\\?&]' + name + '=([^&#]*)');
    var results = regex.exec(location.search);
    return results === null ? '' : decodeURIComponent(results[1].replace(/\+/g, ' '));
};
    var yearEl = document.getElementById('year');
	var year = getUrlParameter('year');

	if (yearEl && year) {
		yearEl.innerHTML = year;
	}

]]></script>
</svg>
