<?xml version="1.0" encoding="utf-8"?>
<!-- Generator: Adobe Illustrator 23.0.1, SVG Export Plug-In . SVG Version: 6.00 Build 0)  -->
<svg version="1.1" id="Layer_1" xmlns="http://www.w3.org/2000/svg" xmlns:xlink="http://www.w3.org/1999/xlink" x="0px" y="0px"
	 viewBox="0 0 17 17" style="enable-background:new 0 0 17 17;" xml:space="preserve">
<style type="text/css">
	.st0{fill:#F9ED32;}
	.st1{fill:#ED1C24;}
	.st2{font-family:'Helvetica';}
	.st3{font-size:5px;}
</style>
<g>
	<path class="st0" d="M16.3,4.87l-4.18-4.11c-0.18-0.17-0.42-0.27-0.66-0.27l-5.95,0c-0.25,0-0.5,0.1-0.68,0.28L0.77,4.89
		C0.6,5.07,0.5,5.31,0.5,5.56v5.85c0,0.25,0.1,0.48,0.27,0.66l4.13,4.26c0.18,0.18,0.42,0.29,0.68,0.29l5.96,0
		c0.26,0,0.51-0.11,0.69-0.29l4.1-4.3c0.17-0.18,0.26-0.41,0.26-0.65l0-5.83C16.59,5.29,16.49,5.05,16.3,4.87z"/>
	<path class="st1" d="M11.54,17.03l-5.96,0c-0.37,0-0.72-0.15-0.98-0.41l-4.13-4.26c-0.25-0.25-0.38-0.59-0.38-0.95V5.55
		c0-0.36,0.14-0.7,0.39-0.95l4.06-4.12c0.25-0.26,0.61-0.41,0.97-0.41c0,0,0,0,0,0l5.95,0c0.36,0,0.7,0.14,0.95,0.39l4.18,4.11
		C16.85,4.83,17,5.18,17,5.55l0,5.83c0,0.35-0.13,0.68-0.38,0.94l-4.1,4.3C12.27,16.88,11.91,17.03,11.54,17.03z M5.51,0.9
		c-0.14,0-0.28,0.06-0.38,0.16L1.07,5.18c-0.1,0.1-0.15,0.23-0.15,0.38v5.85c0,0.14,0.05,0.27,0.15,0.37l4.13,4.26
		c0.1,0.1,0.24,0.16,0.38,0.16l5.96,0c0.15,0,0.29-0.06,0.39-0.17l4.1-4.3c0.1-0.1,0.15-0.23,0.15-0.37l0-5.83
		c0-0.14-0.06-0.28-0.16-0.38v0l-4.18-4.11c-0.1-0.1-0.23-0.15-0.38-0.15L5.51,0.9C5.51,0.9,5.51,0.9,5.51,0.9z"/>
</g>
<g>
	<path d="M5.09,8.21l0.53-0.63c0.36,0.3,0.74,0.49,1.21,0.49c0.36,0,0.58-0.14,0.58-0.38V7.68c0-0.23-0.14-0.34-0.81-0.51
		C5.78,6.96,5.25,6.73,5.25,5.93V5.92c0-0.73,0.59-1.22,1.41-1.22c0.59,0,1.09,0.19,1.5,0.51L7.7,5.88c-0.36-0.25-0.71-0.4-1.05-0.4
		c-0.34,0-0.52,0.16-0.52,0.35v0.01c0,0.27,0.17,0.35,0.87,0.53C7.83,6.6,8.29,6.89,8.29,7.59v0.01c0,0.8-0.61,1.25-1.48,1.25
		C6.19,8.86,5.57,8.65,5.09,8.21z"/>
	<path d="M8.72,8.21l0.53-0.63c0.36,0.3,0.74,0.49,1.21,0.49c0.36,0,0.58-0.14,0.58-0.38V7.68c0-0.23-0.14-0.34-0.81-0.51
		C9.41,6.96,8.89,6.73,8.89,5.93V5.92c0-0.73,0.59-1.22,1.41-1.22c0.59,0,1.09,0.19,1.5,0.51l-0.46,0.67
		c-0.36-0.25-0.71-0.4-1.05-0.4c-0.34,0-0.52,0.16-0.52,0.35v0.01c0,0.27,0.17,0.35,0.87,0.53c0.82,0.21,1.28,0.51,1.28,1.21v0.01
		c0,0.8-0.61,1.25-1.48,1.25C9.83,8.86,9.21,8.65,8.72,8.21z"/>
</g>
<text id="year" transform="matrix(1 0 0 1 5.4927 14.4395)" class="st2 st3">16</text>
<script type="text/javascript"><![CDATA[
function getUrlParameter(name) {
    name = name.replace(/[\[]/, '\\[').replace(/[\]]/, '\\]');
    var regex = new RegExp('[\\?&]' + name + '=([^&#]*)');
    var results = regex.exec(location.search);
    return results === null ? '' : decodeURIComponent(results[1].replace(/\+/g, ' '));
};
    var yearEl = document.getElementById('year');
	var year = getUrlParameter('year');

	if (yearEl && year) {
		yearEl.innerHTML = year;
	}

]]></script>
</svg>
