<?xml version="1.0" encoding="utf-8"?>
<!-- Generator: Adobe Illustrator 23.0.1, SVG Export Plug-In . SVG Version: 6.00 Build 0)  -->
<svg version="1.1" id="Layer_1" xmlns="http://www.w3.org/2000/svg" xmlns:xlink="http://www.w3.org/1999/xlink" x="0px" y="0px"
	 viewBox="0 0 17 17" style="enable-background:new 0 0 17 17;" xml:space="preserve">
<style type="text/css">
	.st0{fill:#FFFFFF;}
	.st1{font-family:'Helvetica';}
	.st2{font-size:5px;}
</style>
<g>
	<path class="st0" d="M7.75,16.14L0.8,9.19c-0.4-0.4-0.4-1.04,0-1.44l6.95-6.95c0.4-0.4,1.04-0.4,1.44,0l6.95,6.95
		c0.4,0.4,0.4,1.04,0,1.44l-6.95,6.95C8.79,16.54,8.15,16.54,7.75,16.14z"/>
	<path d="M8.47,16.92c-0.3,0-0.58-0.12-0.79-0.33L0.35,9.26C0.14,9.05,0.03,8.77,0.03,8.48c0-0.3,0.12-0.58,0.33-0.79l7.33-7.33
		c0.42-0.42,1.15-0.42,1.57,0l7.33,7.33c0.21,0.21,0.33,0.49,0.33,0.79c0,0.3-0.12,0.58-0.33,0.79l-7.33,7.33
		C9.05,16.8,8.77,16.92,8.47,16.92z M8.47,0.77c-0.1,0-0.2,0.04-0.27,0.11L0.87,8.21c-0.15,0.15-0.15,0.39,0,0.54l7.33,7.33
		c0.14,0.14,0.39,0.14,0.54,0l7.33-7.33c0.15-0.15,0.15-0.39,0-0.54L8.74,0.88C8.67,0.81,8.57,0.77,8.47,0.77z"/>
</g>
<g>
	<path d="M3.75,8.48l0.44-0.53C4.5,8.2,4.82,8.36,5.2,8.36c0.3,0,0.49-0.12,0.49-0.32V8.03c0-0.19-0.12-0.28-0.68-0.43
		C4.33,7.43,3.89,7.24,3.89,6.57V6.56c0-0.61,0.49-1.02,1.18-1.02c0.49,0,0.91,0.15,1.26,0.43L5.94,6.53
		C5.64,6.32,5.35,6.2,5.06,6.2c-0.29,0-0.43,0.13-0.43,0.29V6.5c0,0.22,0.14,0.29,0.73,0.44c0.69,0.18,1.07,0.42,1.07,1.01v0.01
		c0,0.67-0.51,1.05-1.24,1.05C4.68,9.02,4.16,8.84,3.75,8.48z"/>
	<path d="M7.07,5.59h0.74v1.34h1.37V5.59h0.74v3.38H9.19V7.61H7.82v1.36H7.07V5.59z"/>
	<path d="M10.51,8.48l0.44-0.53c0.3,0.25,0.62,0.41,1.01,0.41c0.3,0,0.49-0.12,0.49-0.32V8.03c0-0.19-0.12-0.28-0.68-0.43
		c-0.68-0.17-1.12-0.36-1.12-1.03V6.56c0-0.61,0.49-1.02,1.18-1.02c0.49,0,0.91,0.15,1.26,0.43L12.7,6.53
		C12.4,6.32,12.1,6.2,11.82,6.2c-0.29,0-0.43,0.13-0.43,0.29V6.5c0,0.22,0.14,0.29,0.73,0.44c0.69,0.18,1.07,0.42,1.07,1.01v0.01
		c0,0.67-0.51,1.05-1.24,1.05C11.43,9.02,10.92,8.84,10.51,8.48z"/>
</g>
<text id="year" transform="matrix(1 0 0 1 5.4473 13.3779)" class="st1 st2">16</text>
<script type="text/javascript"><![CDATA[
function getUrlParameter(name) {
    name = name.replace(/[\[]/, '\\[').replace(/[\]]/, '\\]');
    var regex = new RegExp('[\\?&]' + name + '=([^&#]*)');
    var results = regex.exec(location.search);
    return results === null ? '' : decodeURIComponent(results[1].replace(/\+/g, ' '));
};
    var yearEl = document.getElementById('year');
	var year = getUrlParameter('year');

	if (yearEl && year) {
		yearEl.innerHTML = year;
	}

]]></script>
</svg>
