<?xml version="1.0" encoding="utf-8"?>
<!-- Generator: Adobe Illustrator 23.0.1, SVG Export Plug-In . SVG Version: 6.00 Build 0)  -->
<svg version="1.1" id="Layer_1" xmlns="http://www.w3.org/2000/svg" xmlns:xlink="http://www.w3.org/1999/xlink" x="0px" y="0px"
	 viewBox="0 0 17 17" style="enable-background:new 0 0 17 17;" xml:space="preserve">
<style type="text/css">
	.st0{fill:#FFFFFF;}
	.st1{font-family:'Helvetica';}
	.st2{font-size:5px;}
</style>
<g>
	<path class="st0" d="M16.17,4.86l-4.15-4.08c-0.18-0.17-0.41-0.27-0.66-0.27l-5.9,0c-0.25,0-0.49,0.1-0.67,0.28L0.78,4.88
		C0.6,5.06,0.51,5.29,0.51,5.54v5.8c0,0.24,0.09,0.48,0.26,0.65l4.09,4.23c0.18,0.18,0.42,0.29,0.67,0.29l5.91,0
		c0.26,0,0.5-0.11,0.68-0.29l4.06-4.26c0.17-0.17,0.26-0.41,0.26-0.65l0-5.78C16.45,5.28,16.35,5.04,16.17,4.86z"/>
	<path d="M11.45,16.92l-5.91,0c-0.36,0-0.72-0.15-0.97-0.41l-4.09-4.23c-0.24-0.25-0.38-0.59-0.38-0.94v-5.8
		c0-0.36,0.14-0.69,0.39-0.94l4.02-4.09c0.25-0.26,0.6-0.4,0.96-0.4l5.9,0c0.36,0,0.69,0.14,0.94,0.39l4.15,4.08
		c0.26,0.25,0.4,0.6,0.4,0.96l0,5.78c0,0.35-0.13,0.68-0.37,0.93l-4.06,4.26C12.17,16.77,11.81,16.92,11.45,16.92z M5.47,0.92
		c-0.14,0-0.28,0.06-0.38,0.16L1.07,5.17c-0.1,0.1-0.15,0.23-0.15,0.37v5.8c0,0.14,0.05,0.27,0.15,0.37l4.09,4.23
		c0.1,0.1,0.24,0.16,0.38,0.16l5.91,0c0.14,0,0.28-0.06,0.38-0.16l4.06-4.26c0.09-0.1,0.15-0.23,0.15-0.37l0-5.78
		c0-0.14-0.06-0.28-0.16-0.38l-4.15-4.08c-0.1-0.1-0.23-0.15-0.37-0.15L5.47,0.92z"/>
</g>
<g>
	<path d="M6.47,4.75h0.97l1.05,2.82l1.05-2.82h0.95L8.87,8.79H8.09L6.47,4.75z"/>
</g>
<text id="year" transform="matrix(1 0 0 1 5.429 14.5618)" class="st1 st2">16</text>
<script type="text/javascript"><![CDATA[
function getUrlParameter(name) {
    name = name.replace(/[\[]/, '\\[').replace(/[\]]/, '\\]');
    var regex = new RegExp('[\\?&]' + name + '=([^&#]*)');
    var results = regex.exec(location.search);
    return results === null ? '' : decodeURIComponent(results[1].replace(/\+/g, ' '));
};
    var yearEl = document.getElementById('year');
	var year = getUrlParameter('year');

	if (yearEl && year) {
		yearEl.innerHTML = year;
	}

]]></script>
</svg>
