<?xml version="1.0" encoding="utf-8"?>
<!-- Generator: Adobe Illustrator 23.0.1, SVG Export Plug-In . SVG Version: 6.00 Build 0)  -->
<svg version="1.1" id="Layer_1" xmlns="http://www.w3.org/2000/svg" xmlns:xlink="http://www.w3.org/1999/xlink" x="0px" y="0px"
	 viewBox="0 0 17 17" style="enable-background:new 0 0 17 17;" xml:space="preserve">
<style type="text/css">
	.st0{fill:#ED1C24;}
	.st1{fill:#FFFFFF;}
	.st2{font-family:'Helvetica';}
	.st3{font-size:5px;}
</style>
<path class="st0" d="M1.2,5.55c0.02-0.52,0.03-1.02,0.07-1.52c0.04-0.45,0.13-0.9,0.2-1.35C1.52,2.43,1.55,2.17,1.6,1.91
	C1.67,1.6,1.75,1.29,1.84,0.98c0.03-0.1,0.12-0.16,0.24-0.17c0.4-0.04,0.81-0.04,1.19-0.13C3.65,0.58,4.05,0.63,4.43,0.5
	c0.24-0.08,0.5-0.07,0.75-0.11c0.33-0.04,0.66-0.08,0.99-0.12c0.47-0.06,0.94-0.1,1.4-0.19c0.63-0.11,1.25-0.1,1.88,0
	c0.44,0.08,0.88,0.12,1.32,0.18c0.41,0.06,0.81,0.12,1.22,0.17c0.01,0,0.02,0,0.03,0.01c0.4,0.05,0.8,0.09,1.19,0.14
	c0.39,0.05,0.79,0.12,1.18,0.18c0.15,0.02,0.3,0.02,0.44,0.03c0.2,0.01,0.3,0.09,0.35,0.28c0.18,0.71,0.34,1.43,0.43,2.15
	c0.1,0.81,0.15,1.62,0.15,2.44c-0.01,0.7-0.04,1.4-0.14,2.1c-0.04,0.31-0.13,0.61-0.19,0.92c-0.04,0.18-0.07,0.36-0.12,0.53
	c-0.11,0.4-0.21,0.8-0.36,1.19c-0.19,0.52-0.42,1.02-0.69,1.51c-0.54,0.96-1.2,1.83-1.99,2.6c-0.78,0.76-1.66,1.38-2.6,1.92
	c-0.34,0.2-0.7,0.36-1.06,0.53c-0.06,0.03-0.16,0.03-0.22,0c-0.76-0.36-1.5-0.75-2.18-1.24c-0.92-0.65-1.75-1.4-2.45-2.29
	c-0.55-0.69-0.99-1.43-1.37-2.23c-0.26-0.56-0.47-1.13-0.65-1.72c-0.11-0.39-0.16-0.8-0.26-1.2C1.26,7.4,1.24,6.46,1.2,5.55z"/>
<g>
	<path class="st1" d="M10.35,3.77L9,5.73l1.4,2.05H9.37l-0.9-1.38L7.56,7.78h-1l1.4-2.04L6.62,3.77h1.03l0.84,1.3l0.85-1.3H10.35z"
		/>
</g>
<g>
	<text id="year" transform="matrix(1 0 0 1 5.5657 14.1582)" class="st1 st2 st3">16</text>
</g>
<script type="text/javascript"><![CDATA[
function getUrlParameter(name) {
    name = name.replace(/[\[]/, '\\[').replace(/[\]]/, '\\]');
    var regex = new RegExp('[\\?&]' + name + '=([^&#]*)');
    var results = regex.exec(location.search);
    return results === null ? '' : decodeURIComponent(results[1].replace(/\+/g, ' '));
};
    var yearEl = document.getElementById('year');
	var year = getUrlParameter('year');

	if (yearEl && year) {
		yearEl.innerHTML = year;
	}

]]></script>
</svg>
